<?xml version="1.0" encoding="UTF-8"?>
<svg version="1.1" xmlns="http://www.w3.org/2000/svg" width="2730" height="1004">
<path d="M0 0 C40.0918138 -0.88633339 80.21869614 3.52157242 119.35351562 12.06640625 C121.08166504 12.44273193 121.08166504 12.44273193 122.84472656 12.82666016 C207.52951652 31.69809157 286.44664165 74.79193818 349.86083984 133.68701172 C351.37265488 135.084093 352.89446166 136.46940163 354.41992188 137.8515625 C362.83517166 145.48340663 371.07303175 153.24587478 378.45898438 161.89453125 C380.32744669 164.03652104 382.25633964 166.11334435 384.19946289 168.1875 C390.1900838 174.60416228 395.63566182 181.34043565 400.98291016 188.29736328 C402.32879283 190.03449649 403.69409428 191.75401159 405.06835938 193.46875 C425.38080944 218.8511 443.28034411 246.74729892 457.35351562 276.06640625 C465.27351563 276.39640625 473.19351563 276.72640625 481.35351562 277.06640625 C479.14606346 282.58503666 479.14606346 282.58503666 476.40039062 285.17578125 C472.74591053 289.05476865 469.60365963 292.78412175 468.35351562 298.06640625 C469.2925874 305.84439958 473.42245943 312.95929226 476.85107422 319.89550781 C479.10097441 324.64391595 480.81017729 329.52697774 482.47851562 334.50390625 C482.95961792 335.91712158 482.95961792 335.91712158 483.45043945 337.35888672 C484.4303161 340.25747343 485.39321579 343.16128121 486.35351562 346.06640625 C486.68061523 347.04029297 487.00771484 348.01417969 487.34472656 349.01757812 C497.19922874 378.57147051 503.32958701 409.20848857 507.35351562 440.06640625 C507.51722656 441.26942383 507.6809375 442.47244141 507.84960938 443.71191406 C513.03554836 483.34577421 512.7566098 525.47358639 507.35351562 565.06640625 C507.18190918 566.36819824 507.01030273 567.66999023 506.83349609 569.01123047 C500.33153686 617.66868081 486.90478659 665.46304076 466.35351562 710.06640625 C465.89750977 711.0620459 465.44150391 712.05768555 464.97167969 713.08349609 C439.15780818 769.11394814 403.05369003 818.35890065 359.60351562 861.94140625 C359.10774017 862.43986053 358.61196472 862.93831482 358.10116577 863.45187378 C352.36583776 869.21069022 346.55128964 874.80443059 340.35351562 880.06640625 C339.22361221 881.0509401 338.09467564 882.03658486 336.96679688 883.0234375 C244.708269 963.06640625 244.708269 963.06640625 207.35351562 963.06640625 C207.16789062 963.87078125 206.98226562 964.67515625 206.79101562 965.50390625 C201.37832911 978.91795545 189.19576585 986.66204519 176.48681641 992.21337891 C170.61143169 994.56272592 164.55430408 995.88975061 158.35351562 997.06640625 C157.23460938 997.27910156 156.11570312 997.49179687 154.96289062 997.7109375 C135.70775398 1000.76626169 114.00975858 1001.88385514 94.72851562 998.4140625 C88.62405565 997.62982694 82.57314265 998.96476075 76.54101562 999.87890625 C73.81192983 1000.26550879 71.08105783 1000.638306 68.34960938 1001.0078125 C67.32155685 1001.14701614 67.32155685 1001.14701614 66.2727356 1001.28903198 C27.56219422 1006.47558935 -12.91067309 1005.89180951 -51.64648438 1001.06640625 C-52.33021118 1000.98154968 -53.01393799 1000.89669312 -53.71838379 1000.80926514 C-104.7109701 994.39310769 -153.89412419 980.49391654 -200.64648438 959.06640625 C-201.65420898 958.60508301 -202.66193359 958.14375977 -203.70019531 957.66845703 C-242.70304848 939.67791886 -278.66388505 916.53659343 -311.64648438 889.06640625 C-312.15147461 888.6477832 -312.65646484 888.22916016 -313.17675781 887.79785156 C-326.26247887 876.9346899 -338.48612319 865.31830449 -350.52148438 853.31640625 C-351.06768433 852.77288513 -351.61388428 852.22936401 -352.17663574 851.66937256 C-358.21847636 845.64999653 -364.14111662 839.58792137 -369.64648438 833.06640625 C-370.52329476 832.05660188 -371.40085377 831.04744686 -372.27929688 830.0390625 C-386.05324082 813.9550684 -399.19616051 796.89412568 -410.64648438 779.06640625 C-411.24976563 779.27136719 -411.85304688 779.47632813 -412.47460938 779.6875 C-413.27382812 779.95691406 -414.07304688 780.22632813 -414.89648438 780.50390625 C-416.07984375 780.90416016 -416.07984375 780.90416016 -417.28710938 781.3125 C-419.39559211 781.98623703 -421.49756117 782.54106986 -423.64648438 783.06640625 C-424.98547467 778.52031824 -425.77437622 774.41040299 -425.92773438 769.66796875 C-426.373434 755.92594653 -428.84570627 747.19222863 -436.09130859 735.67480469 C-439.20372677 730.4545416 -441.82242101 724.97566449 -444.45898438 719.50390625 C-444.75401855 718.89251801 -445.04905273 718.28112976 -445.35302734 717.6512146 C-468.78978123 668.81483096 -483.48347678 616.16575817 -489.95898438 562.44140625 C-490.04038666 561.76606842 -490.12178894 561.09073059 -490.20565796 560.39492798 C-491.82089158 546.79332266 -492.79501721 533.24471846 -492.88476562 519.54296875 C-492.89455948 518.29472321 -492.90435333 517.04647766 -492.91444397 515.76040649 C-492.93948727 511.73736532 -492.95313844 507.71451146 -492.95898438 503.69140625 C-492.96013496 503.00370651 -492.96128555 502.31600677 -492.96247101 501.60746765 C-492.98998199 477.89955462 -492.08358623 454.55184691 -488.64648438 431.06640625 C-488.49019562 429.98141846 -488.49019562 429.98141846 -488.33074951 428.87451172 C-481.95039603 384.93431836 -469.8646677 341.5849101 -451.64648438 301.06640625 C-451.15035645 299.95362305 -450.65422852 298.84083984 -450.14306641 297.69433594 C-427.75349477 247.70543085 -397.61368909 202.45536876 -360.64648438 162.06640625 C-360.20224121 161.5770459 -359.75799805 161.08768555 -359.30029297 160.58349609 C-351.00275269 151.44339255 -342.45117065 142.57033291 -333.52539062 134.0390625 C-331.29499107 131.69737482 -329.47187679 129.19181178 -327.58398438 126.56640625 C-310.55019846 103.47687598 -288.05846184 88.42106216 -261.98242188 77.17407227 C-255.34046036 74.30316429 -249.01848077 71.26745259 -242.83398438 67.50390625 C-170.03406875 23.38907088 -84.63543703 2.12369362 0 0 Z " fill="#E41F26" transform="translate(2219.646484375,-0.06640625)"/>
<path d="M0 0 C31.96993584 -0.47767297 64.6108664 -0.0893979 95.26611328 10.06201172 C96.01425293 10.30290527 96.76239258 10.54379883 97.53320312 10.79199219 C117.91537656 17.38943306 135.72691551 26.28409138 152.26611328 40.06201172 C152.88099609 40.54154297 153.49587891 41.02107422 154.12939453 41.51513672 C159.68452888 45.95924419 163.93858556 51.45168114 168.26611328 57.06201172 C168.86423828 57.83287109 169.46236328 58.60373047 170.07861328 59.39794922 C187.53999041 83.08398394 196.39046361 113.52380297 196.43408203 142.80419922 C196.43741043 143.61204865 196.44073883 144.41989807 196.44416809 145.25222778 C196.44919719 146.95476724 196.45157767 148.65731641 196.45141602 150.35986328 C196.45357846 152.89617322 196.47171079 155.43202979 196.49072266 157.96826172 C196.62542478 196.38918364 187.20747536 233.63816297 170.26611328 268.06201172 C169.93949707 268.75278809 169.61288086 269.44356445 169.27636719 270.15527344 C163.89343275 281.49467044 157.26488151 291.94136704 150.32861328 302.37451172 C149.91421997 303.00023071 149.49982666 303.62594971 149.07287598 304.27062988 C137.26363955 322.03757416 123.63050921 338.3130957 109.26611328 354.06201172 C108.50685547 354.91408203 107.74759766 355.76615234 106.96533203 356.64404297 C100.86989701 363.42201504 94.51449064 369.91922261 88.07861328 376.37451172 C87.23516357 377.22255371 86.39171387 378.0705957 85.52270508 378.94433594 C81.18265295 383.27373711 76.77579257 387.45105436 72.12670898 391.4465332 C69.156406 394.02552479 66.31450258 396.73809074 63.45361328 399.43701172 C58.4104551 404.16074281 53.23920352 408.63035462 47.84423828 412.95263672 C45.24185039 415.08186318 42.75035826 417.29650529 40.26611328 419.56201172 C36.01959642 423.42734517 31.63598218 427.07599418 27.17236328 430.68701172 C24.06218424 433.22866341 21.00715741 435.82802026 17.95361328 438.43701172 C12.99208734 442.66382332 7.92349362 446.72501856 2.77856445 450.72558594 C-2.70364915 455.002661 -8.05665078 459.42875222 -13.40991211 463.86547852 C-17.86033414 467.54485019 -22.35969862 471.14684749 -26.92138672 474.68701172 C-32.31737525 478.88072125 -37.53136668 483.25219365 -42.69775391 487.72485352 C-46.14473084 490.70781433 -49.6271784 493.63163901 -53.17138672 496.49951172 C-64.2031598 505.47396442 -74.79151659 514.93231349 -85.18847656 524.62988281 C-86.70047642 526.03105045 -88.22403983 527.41813301 -89.75341797 528.80029297 C-99.94815732 538.02085354 -109.87618034 547.53377299 -118.73388672 558.06201172 C-119.52794922 558.96693359 -120.32201172 559.87185547 -121.14013672 560.80419922 C-126.69606094 567.17576526 -131.84210511 573.77355056 -136.79638672 580.62451172 C-137.35664551 581.39843262 -137.9169043 582.17235352 -138.49414062 582.96972656 C-140.84302972 586.25643726 -142.99798437 589.40376389 -144.73388672 593.06201172 C-143.96729736 593.04460938 -143.20070801 593.02720703 -142.41088867 593.00927734 C-133.81287399 592.90080949 -125.45219538 593.55826354 -116.92138672 594.56201172 C-115.41661384 594.73340513 -113.91181103 594.904536 -112.40698242 595.07543945 C-101.67328636 596.30868465 -90.95340111 597.65342441 -80.23388672 599.00341797 C-79.2061637 599.13267984 -79.2061637 599.13267984 -78.1576786 599.26455307 C-71.23009272 600.1359193 -64.30290248 601.0099754 -57.37778568 601.900774 C-17.96316036 607.18299703 -17.96316036 607.18299703 21.69580078 609.26513672 C22.94097473 609.27552223 22.94097473 609.27552223 24.21130371 609.28611755 C26.85462299 609.30318747 29.4977416 609.30969651 32.14111328 609.31201172 C33.49840546 609.31402084 33.49840546 609.31402084 34.88311768 609.31607056 C87.28900922 609.29926897 121.85196012 589.66512079 159.33642578 554.77685547 C169.82007012 545.06201172 169.82007012 545.06201172 171.26611328 545.06201172 C172.0643672 549.27970923 172.39669173 553.27014164 172.41137695 557.56030273 C172.42094673 559.47003624 172.42094673 559.47003624 172.43070984 561.41835022 C172.43224096 562.80087241 172.43335361 564.18339512 172.43408203 565.56591797 C172.43730374 567.0091912 172.44066847 568.45246411 172.44416809 569.89573669 C172.45014911 572.92602287 172.45200957 575.95628061 172.45141602 578.98657227 C172.45133545 582.05173737 172.45816516 585.11675084 172.47192383 588.18188477 C172.64652088 627.68128196 171.9982718 675.10496574 142.57861328 705.31201172 C129.66563514 717.99050502 112.78301098 724.55863218 95.26611328 728.06201172 C93.39439453 728.47966797 93.39439453 728.47966797 91.48486328 728.90576172 C39.57485999 739.25354508 -16.51978293 725.84426951 -66.75402832 713.37762451 C-133.66321615 696.79155185 -188.0918845 688.95742231 -250.85888672 722.18701172 C-252.80058135 723.09313588 -254.65414755 723.5701232 -256.73388672 724.06201172 C-258.07287701 719.51592371 -258.86177856 715.40600845 -259.01513672 710.66357422 C-259.46083634 696.921552 -261.93310862 688.1878341 -269.17871094 676.67041016 C-272.29112912 671.45014707 -274.90982336 665.97126996 -277.54638672 660.49951172 C-277.8414209 659.88812347 -278.13645508 659.27673523 -278.44042969 658.64682007 C-301.87718357 609.81043642 -316.57087912 557.16136364 -323.04638672 503.43701172 C-323.127789 502.76167389 -323.20919128 502.08633606 -323.2930603 501.39053345 C-324.90829393 487.78892813 -325.88241956 474.24032393 -325.97216797 460.53857422 C-325.98196182 459.29032867 -325.99175568 458.04208313 -326.00184631 456.75601196 C-326.02688961 452.73297079 -326.04054078 448.71011693 -326.04638672 444.68701172 C-326.04753731 443.99931198 -326.0486879 443.31161224 -326.04987335 442.60307312 C-326.07738434 418.89516009 -325.17098857 395.54745238 -321.73388672 372.06201172 C-321.57759796 370.97702393 -321.57759796 370.97702393 -321.41815186 369.87011719 C-315.03779837 325.92992383 -302.95207004 282.58051557 -284.73388672 242.06201172 C-284.23775879 240.94922852 -283.74163086 239.83644531 -283.23046875 238.68994141 C-260.84089712 188.70103632 -230.70109144 143.45097423 -193.73388672 103.06201172 C-193.28964355 102.57265137 -192.84540039 102.08329102 -192.38769531 101.57910156 C-184.09015504 92.43899802 -175.53857299 83.56593838 -166.61279297 75.03466797 C-164.38239342 72.69298029 -162.55927914 70.18741725 -160.67138672 67.56201172 C-145.26372014 46.67670849 -125.18837288 31.84393423 -101.73388672 21.06201172 C-101.09467285 20.7677832 -100.45545898 20.47355469 -99.796875 20.17041016 C-93.20984971 17.17185156 -86.8015543 14.65793666 -79.73388672 13.06201172 C-77.95947178 12.44725379 -76.18904671 11.82093116 -74.42138672 11.18701172 C-50.83623853 3.26662613 -24.77356163 0.41143485 0 0 Z " fill="#FEFEFE" transform="translate(2052.73388671875,58.93798828125)"/>
<path d="M0 0 C-1.28532365 3.37604803 -2.31903253 5.6239147 -4.953125 8.109375 C-8.60760509 11.9883624 -11.74985599 15.7177155 -13 21 C-12.06092823 28.77799333 -7.9310562 35.89288601 -4.50244141 42.82910156 C-2.25254122 47.5775097 -0.54333834 52.46057149 1.125 57.4375 C1.60610229 58.85071533 1.60610229 58.85071533 2.09692383 60.29248047 C3.07680048 63.19106718 4.03970016 66.09487496 5 69 C5.32709961 69.97388672 5.65419922 70.94777344 5.99121094 71.95117188 C15.84571311 101.50506426 21.97607139 132.14208232 26 163 C26.24556641 164.80452637 26.24556641 164.80452637 26.49609375 166.64550781 C31.68203274 206.27936796 31.40309418 248.40718014 26 288 C25.82839355 289.30179199 25.65678711 290.60358398 25.47998047 291.94482422 C18.97802124 340.60227456 5.55127096 388.39663451 -15 433 C-15.45600586 433.99563965 -15.91201172 434.9912793 -16.38183594 436.01708984 C-42.19570744 492.04754189 -78.29982559 541.2924944 -121.75 584.875 C-122.24577545 585.37345428 -122.7415509 585.87190857 -123.25234985 586.38546753 C-128.98767787 592.14428397 -134.80222598 597.73802434 -141 603 C-142.12990342 603.98453385 -143.25883998 604.97017861 -144.38671875 605.95703125 C-236.64524662 686 -236.64524662 686 -274 686 C-274.185625 686.804375 -274.37125 687.60875 -274.5625 688.4375 C-279.97518652 701.8515492 -292.15774977 709.59563894 -304.86669922 715.14697266 C-310.74208394 717.49631967 -316.79921154 718.82334436 -323 720 C-324.11890625 720.21269531 -325.2378125 720.42539062 -326.390625 720.64453125 C-357.21091055 725.53496469 -396.71824561 726.45749887 -423.515625 707.90234375 C-445.55885516 691.02332946 -455.77155387 666.28690036 -459.45703125 639.40234375 C-459.63908979 637.93502807 -459.81996857 636.46756577 -460 635 C-460.08692108 634.32273361 -460.17384216 633.64546722 -460.26339722 632.94767761 C-460.94410513 627.33709883 -461.18861523 621.79731995 -461.23828125 616.1484375 C-461.24802979 615.22387253 -461.25777832 614.29930756 -461.26782227 613.34672546 C-461.45003167 591.5486731 -460.91891596 570.49216016 -457 549 C-456.80744629 547.9382959 -456.61489258 546.8765918 -456.41650391 545.78271484 C-454.09500143 533.41106548 -450.86366228 521.43562682 -446.83886719 509.51660156 C-445.93967414 506.81902241 -445.08127667 504.11042245 -444.2265625 501.3984375 C-433.04520044 466.29774743 -416.67899338 432.70027849 -398 401 C-396.73271104 398.8231273 -395.46579994 396.64603458 -394.19921875 394.46875 C-380.99215655 371.87208931 -366.92467744 349.94919444 -351.81933594 328.57617188 C-350.14594659 326.20665974 -348.48128048 323.8313531 -346.8203125 321.453125 C-336.25615345 306.35554123 -325.29795936 291.55553764 -314 277 C-312.41592848 274.9380669 -310.83261478 272.87555141 -309.25 270.8125 C-307.50185955 268.54023063 -305.75126122 266.26986477 -304 264 C-303.21085205 262.97664551 -303.21085205 262.97664551 -302.40576172 261.93261719 C-295.60416322 253.12176797 -288.73558158 244.37739654 -281.68652344 235.76293945 C-278.21117866 231.51099613 -274.80661183 227.21140236 -271.4375 222.875 C-267.22247261 217.4620417 -262.83070891 212.22803814 -258.34179688 207.04077148 C-254.57224764 202.68360883 -250.90938557 198.25007518 -247.27734375 193.77734375 C-244.25580056 190.09240857 -241.16964049 186.46431679 -238.08349609 182.83349609 C-235.20442157 179.44026525 -232.36788508 176.0172328 -229.5625 172.5625 C-224.66427761 166.54866823 -219.61086754 160.67366596 -214.54833984 154.79833984 C-212.02707065 151.8699783 -209.51387757 148.93470651 -207 146 C-206.00004023 144.83329885 -205.00004019 143.66663221 -204 142.5 C-203.505 141.9225 -203.01 141.345 -202.5 140.75 C-201 139 -199.5 137.25 -198 135.5 C-197.50508057 134.92258057 -197.01016113 134.34516113 -196.50024414 133.75024414 C-195.49948394 132.58271772 -194.49867008 131.4152373 -193.49780273 130.24780273 C-191.00899324 127.34466371 -188.52109909 124.44075051 -186.03515625 121.53515625 C-185.04435124 120.37753535 -184.05346583 119.21998325 -183.0625 118.0625 C-182.57587891 117.494104 -182.08925781 116.92570801 -181.58789062 116.34008789 C-177.20408282 111.22588484 -172.79050986 106.13765654 -168.36352539 101.06079102 C-167.85168701 100.47225342 -167.33984863 99.88371582 -166.8125 99.27734375 C-166.36519531 98.76421631 -165.91789062 98.25108887 -165.45703125 97.72241211 C-163.59203109 95.51772442 -161.79668055 93.26051844 -160 91 C-185.55315413 86.87442341 -210.84787445 85.68445803 -236.69126129 85.63074493 C-238.71051027 85.6251102 -240.7297397 85.6134876 -242.7489624 85.60174561 C-308.72635157 85.2956929 -382.97574864 97.64107319 -431.9296875 145.82421875 C-433.43885377 147.35990391 -434.93215295 148.91160076 -436.3984375 150.48828125 C-438 152 -438 152 -440 152 C-446.13470787 125.55765631 -450.70803036 98.01316278 -445 71 C-444.74283203 69.54787109 -444.74283203 69.54787109 -444.48046875 68.06640625 C-440.57843241 49.11006196 -428.56991358 32.31058087 -412.5546875 21.6484375 C-381.27272188 1.70442258 -345.05830824 0.86611847 -309.14887702 0.79939139 C-305.36744901 0.79130162 -301.58604038 0.77763238 -297.80462646 0.76467896 C-291.26352111 0.74302341 -284.72241368 0.72483724 -278.18129158 0.70907402 C-268.69805628 0.68622066 -259.2148422 0.65809408 -249.73162501 0.62875474 C-234.30733967 0.58118248 -218.8830454 0.53790746 -203.45874023 0.49731445 C-188.54401913 0.45805417 -173.62930663 0.41661428 -158.71459961 0.37231445 C-157.33847098 0.36822804 -157.33847098 0.36822804 -155.93454177 0.36405908 C-152.24512396 0.3530948 -148.55570619 0.34211574 -144.86628849 0.33111694 C-116.4921479 0.24655545 -88.11800021 0.16416451 -59.74383545 0.08810806 C-56.78841043 0.08018237 -53.83298584 0.07211888 -50.87756157 0.06391716 C-33.91834147 0.01697806 -16.95929116 -0.01196598 0 0 Z " fill="#FEFEFE" transform="translate(2701,277)"/>
<path d="M0 0 C177.38274336 0 177.38274336 0 218 11 C218.76940918 11.20818359 219.53881836 11.41636719 220.33154297 11.63085938 C245.3037514 18.65007472 267.91891912 31.56010849 287 49 C287.5062793 49.46100098 288.01255859 49.92200195 288.53417969 50.39697266 C322.6951701 81.93610157 339.3369065 128.23773117 341.24609375 173.90625 C341.352388 178.28242712 341.23658762 182.62980687 341 187 C340.95746094 187.79615723 340.91492188 188.59231445 340.87109375 189.41259766 C338.07411279 235.55381883 319.92602333 277.82588231 286.1875 309.6875 C261.76607365 331.2602934 226.69388182 352 193 352 C193.32572998 352.45101074 193.65145996 352.90202148 193.98706055 353.36669922 C222.25 392.5 222.25 392.5 223.87475586 394.74975586 C224.95878416 396.2506555 226.04293142 397.75146922 227.12719727 399.25219727 C229.82587655 402.98773967 232.52251312 406.72472254 235.21484375 410.46484375 C240.82903178 418.25915847 246.47885383 426.024536 252.1875 433.75 C257.00286929 440.26722873 261.75864473 446.82113315 266.453125 453.42578125 C271.03990213 459.87525511 275.69333353 466.27707393 280.33105469 472.68994141 C281.96518299 474.95180829 283.5963713 477.21576308 285.2265625 479.48046875 C290.83648065 487.26984096 296.48272122 495.0297697 302.1875 502.75 C307.00286929 509.26722873 311.75864473 515.82113315 316.453125 522.42578125 C321.03990213 528.87525511 325.69333353 535.27707393 330.33105469 541.68994141 C331.96518299 543.95180829 333.5963713 546.21576308 335.2265625 548.48046875 C340.83648065 556.26984096 346.48272122 564.0297697 352.1875 571.75 C356.99341464 578.25443261 361.74003739 584.79538145 366.42578125 591.38671875 C369.51474148 595.72991711 372.63141489 600.0530454 375.75 604.375 C376.28117432 605.11242432 376.81234863 605.84984863 377.35961914 606.60961914 C380.47033139 610.91814276 383.63810765 615.16783856 386.90722656 619.35791016 C388 621 388 621 388 623 C375.80444294 623.34846857 363.61008032 623.61452104 351.41054821 623.77718258 C345.74464065 623.85528107 340.0821522 623.96107142 334.41821289 624.1315918 C328.94545107 624.29531393 323.47596288 624.38440408 318.00094032 624.42315865 C315.91898357 624.45074961 313.83719458 624.50463955 311.7566433 624.58595085 C295.89282667 625.18093284 295.89282667 625.18093284 291.05504799 621.53367996 C287.6718101 618.01609458 285.21565373 614.0740679 282.95043468 609.77160454 C281.69931207 607.43951952 280.19967234 605.32534479 278.64453125 603.1875 C277.69816339 601.79326392 276.75415149 600.39742579 275.8125 599 C274.71174386 597.37966025 273.610142 595.75989479 272.5078125 594.140625 C271.9396582 593.30595703 271.37150391 592.47128906 270.78613281 591.61132812 C267.61315782 586.97243522 264.40016367 582.36145658 261.1875 577.75 C260.51630127 576.78642578 259.84510254 575.82285156 259.15356445 574.83007812 C257.78535103 572.86640073 256.41694201 570.9028596 255.04833984 568.93945312 C251.69581654 564.12844233 248.34808357 559.31410105 245 554.5 C240.94290231 548.66692573 236.88502712 542.83439806 232.82421875 537.00390625 C226.5508141 527.99463698 220.28695501 518.97982163 214.08081055 509.92407227 C209.82660559 503.72667677 205.50783866 497.57493924 201.19091797 491.42114258 C197.15475104 485.66284095 193.15736346 479.87959295 189.18359375 474.078125 C185.49032884 468.6943569 181.74943295 463.34476403 178 458 C173.35846862 451.38356218 168.7508282 444.74601624 164.18359375 438.078125 C160.49032884 432.6943569 156.74943295 427.34476403 153 422 C148.35846862 415.38356218 143.7508282 408.74601624 139.18359375 402.078125 C136.67068735 398.41499614 134.14119731 394.76421044 131.59375 391.125 C131.00601807 390.28300049 130.41828613 389.44100098 129.81274414 388.57348633 C128.60636543 386.86083474 127.38677414 385.15741258 126.15405273 383.46362305 C122.82144924 378.84479874 120.04238183 374.43793233 117.92797852 369.13598633 C116.07534078 365.77679562 116.07534078 365.77679562 110 360 C99.77 359.67 89.54 359.34 79 359 C79 446.12 79 533.24 79 623 C52.93 623 26.86 623 0 623 C0 417.41 0 211.82 0 0 Z M79 70 C79 143.92 79 217.84 79 294 C120.25057891 294.69110703 120.25057891 294.69110703 161 291 C162.12277344 290.82307617 163.24554688 290.64615234 164.40234375 290.46386719 C190.29942049 286.24721718 213.55542273 278.97939468 234 262 C234.93328125 261.24203125 235.8665625 260.4840625 236.828125 259.703125 C255.92699284 243.37839439 264.37249616 220.54866399 267 196 C267.27842977 191.0790994 267.33486101 186.17804668 267.3125 181.25 C267.30404053 179.28220581 267.30404053 179.28220581 267.29541016 177.2746582 C266.9746778 151.53191701 260.65339911 127.6841803 242 109 C241.23945313 108.22785156 240.47890625 107.45570313 239.6953125 106.66015625 C200.59286296 69.16026612 128.77002561 70 79 70 Z " fill="#000000" transform="translate(0,96)"/>
<path d="M0 0 C0.66 0 1.32 0 2 0 C8.6564613 15.46805468 14.74087011 31.00237432 20 47 C20.49064941 48.46300537 20.49064941 48.46300537 20.99121094 49.95556641 C30.84673007 79.50770108 36.97624648 110.14342505 41 141 C41.24556641 142.80452637 41.24556641 142.80452637 41.49609375 144.64550781 C46.68203274 184.27936796 46.40309418 226.40718014 41 266 C40.82839355 267.30179199 40.65678711 268.60358398 40.47998047 269.94482422 C33.97802124 318.60227456 20.55127096 366.39663451 0 411 C-0.45600586 411.99563965 -0.91201172 412.9912793 -1.38183594 414.01708984 C-27.19570744 470.04754189 -63.29982559 519.2924944 -106.75 562.875 C-107.24577545 563.37345428 -107.7415509 563.87190857 -108.25234985 564.38546753 C-113.98767787 570.14428397 -119.80222598 575.73802434 -126 581 C-127.12990342 581.98453385 -128.25883998 582.97017861 -129.38671875 583.95703125 C-221.64524662 664 -221.64524662 664 -259 664 C-260.16247898 662.59818711 -261.32061335 661.19255308 -262.45703125 659.76953125 C-264.11946575 657.86299245 -265.89005098 656.26795741 -267.8125 654.625 C-289.88232573 635.60212783 -302.69004407 611.00007256 -306 582 C-307.09377876 558.47399078 -304.38356678 535.86228883 -299 513 C-298.78359863 512.06075684 -298.56719727 511.12151367 -298.34423828 510.15380859 C-291.5550105 481.05204016 -280.71170445 452.84613045 -266.42431641 426.62060547 C-264.87820832 423.775915 -263.3504397 420.92181271 -261.82421875 418.06640625 C-255.96563947 407.13368537 -249.97179831 396.31387258 -243.59716797 385.67431641 C-241.63968827 382.3966899 -239.69668726 379.1105677 -237.75390625 375.82421875 C-222.11177799 349.3790661 -206.14318096 323.14247475 -190 297 C-189.4332959 296.0817041 -188.8665918 295.1634082 -188.28271484 294.21728516 C-180.2094016 281.13856559 -172.07386854 268.09918495 -163.92041016 255.0703125 C-161.99086774 251.98539953 -160.06345094 248.89916882 -158.13671875 245.8125 C-150.93797785 234.2813277 -143.71283603 222.76764708 -136.44287109 211.28125 C-134.98751567 208.98026167 -133.53440882 206.67786895 -132.08203125 204.375 C-125.0081198 193.15989067 -117.89725691 181.96861947 -110.7734375 170.78515625 C-109.03529282 168.05542684 -107.29861894 165.32476815 -105.5625 162.59375 C-94.50316111 145.19838071 -83.43381036 127.80873487 -72.21313477 110.5168457 C-68.19700651 104.32102074 -64.22440666 98.09764194 -60.25 91.875 C-53.14674115 80.75916183 -45.95787187 69.70132854 -38.73779297 58.66113281 C-36.61696751 55.41345124 -34.50530828 52.15989334 -32.39477539 48.90551758 C-26.39188542 39.65094166 -20.35684611 30.41742781 -14.31060791 21.19113159 C-13.35911247 19.73888847 -12.40805732 18.28635678 -11.4574585 16.83352661 C-10.1161885 14.78398229 -8.77316876 12.73559531 -7.4296875 10.6875 C-6.825802 9.76377846 -6.825802 9.76377846 -6.2097168 8.82139587 C-1.81115958 2.12537379 -1.81115958 2.12537379 0 0 Z " fill="#E41F26" transform="translate(2686,299)"/>
<path d="M0 0 C0.91410645 -0.01756348 1.82821289 -0.03512695 2.77001953 -0.05322266 C18.06358695 -0.03944715 30.35284801 6.95685694 41.08984375 17.46484375 C55.66622343 32.71044029 62.89386454 53.12014885 63.015625 73.96484375 C63.02272995 74.77346359 63.0298349 75.58208344 63.03715515 76.41520691 C63.30504734 115.96134265 58.09660963 154.86711179 41.8125 191.3125 C41.23202224 192.65449394 40.65267882 193.99697886 40.07421875 195.33984375 C30.02214707 218.517314 18.23839647 240.5402757 3.8125 261.3125 C3.37470215 261.94720215 2.9369043 262.5819043 2.48583984 263.23583984 C-4.40462722 273.20894564 -11.57714401 282.87904323 -19.1875 292.3125 C-19.69925781 292.9504248 -20.21101563 293.58834961 -20.73828125 294.24560547 C-30.95164479 306.9719286 -41.40900774 319.44385871 -52.51953125 331.3984375 C-54.56253257 333.6298855 -56.56297421 335.88100427 -58.546875 338.1640625 C-62.15108679 342.29866488 -65.86677959 346.3179379 -69.625 350.3125 C-70.28242187 351.01310547 -70.93984375 351.71371094 -71.6171875 352.43554688 C-75.46370358 356.52199415 -79.3652244 360.53564048 -83.37280273 364.46484375 C-85.07699987 366.19999293 -86.64850694 367.98764727 -88.21875 369.84375 C-93.38079311 375.7814652 -99.04574195 381.22903748 -104.64453125 386.74902344 C-109.78549174 391.824163 -114.81736485 396.92547891 -119.515625 402.41796875 C-123.19883886 406.59170408 -127.25463565 410.4166637 -131.2265625 414.3125 C-135.19715209 418.2370982 -138.97296862 422.25295959 -142.59570312 426.50195312 C-144.22336624 428.35329509 -145.92737981 430.08734909 -147.6875 431.8125 C-150.70163582 434.77985323 -153.48667333 437.88595292 -156.24609375 441.08984375 C-158.47554061 443.64226883 -160.76751382 446.13137514 -163.0625 448.625 C-167.0800787 453.03468473 -170.91415604 457.54672977 -174.65625 462.19140625 C-176.54554498 464.53538951 -178.46897352 466.84786737 -180.40625 469.15234375 C-222.54703182 519.423275 -249.28213432 574.50216722 -254.1875 640.3125 C-257.05818876 637.79089818 -258.58019174 634.99574996 -260.33984375 631.625 C-260.94546143 630.46532715 -261.5510791 629.3056543 -262.17504883 628.11083984 C-262.82600387 626.84522568 -263.47596216 625.57909842 -264.125 624.3125 C-264.62246231 623.34561249 -264.62246231 623.34561249 -265.12997437 622.35919189 C-292.51961506 568.99980368 -310.21023404 511.54519764 -317.4375 452 C-317.52067474 451.31570923 -317.60384949 450.63141846 -317.68954468 449.9263916 C-319.33393427 436.22652043 -320.33536582 422.59264435 -320.42578125 408.7890625 C-320.4355751 407.54081696 -320.44536896 406.29257141 -320.45545959 405.00650024 C-320.48050289 400.98345907 -320.49415406 396.96060521 -320.5 392.9375 C-320.50115059 392.24980026 -320.50230118 391.56210052 -320.50348663 390.8535614 C-320.53099762 367.14564837 -319.62460185 343.79794066 -316.1875 320.3125 C-316.03121124 319.22751221 -316.03121124 319.22751221 -315.87176514 318.12060547 C-309.49141165 274.18041211 -297.40568332 230.83100385 -279.1875 190.3125 C-278.69137207 189.1997168 -278.19524414 188.08693359 -277.68408203 186.94042969 C-255.2945104 136.9515246 -225.15470472 91.70146251 -188.1875 51.3125 C-187.74325684 50.82313965 -187.29901367 50.3337793 -186.84130859 49.82958984 C-181.03571872 43.43447866 -175.13249897 37.14540795 -169.0625 31 C-168.2276709 30.14571411 -168.2276709 30.14571411 -167.37597656 29.27416992 C-166.01867555 27.91370553 -164.60746546 26.60742373 -163.1875 25.3125 C-162.5275 25.3125 -161.8675 25.3125 -161.1875 25.3125 C-162.69904288 29.28400481 -164.5380204 33.01354079 -166.4375 36.8125 C-180.05452031 65.2270412 -182.64039712 99.12966162 -172.5 129 C-165.99842023 146.9798046 -155.77621667 160.74473993 -138.58203125 169.6640625 C-136.14168031 170.70708362 -133.72864289 171.54783998 -131.1875 172.3125 C-129.72957031 172.75722656 -129.72957031 172.75722656 -128.2421875 173.2109375 C-104.52735408 179.56208453 -80.68396485 172.22903861 -59.875 160.53125 C-51.8487652 155.82503556 -44.40607439 150.16249709 -37.1875 144.3125 C-37.91195313 143.93738281 -38.63640625 143.56226563 -39.3828125 143.17578125 C-53.77982732 135.5549614 -62.85875809 124.82067511 -67.86376953 109.20214844 C-75.59322099 83.85986074 -76.78869549 54.68633889 -64.73828125 30.390625 C-63.3225298 27.93814217 -61.82818728 25.61958468 -60.1875 23.3125 C-59.51267578 22.36310547 -59.51267578 22.36310547 -58.82421875 21.39453125 C-50.51375595 10.78991252 -37.19710219 4.76220571 -24.1875 2.3125 C-22.89779297 2.03599609 -22.89779297 2.03599609 -21.58203125 1.75390625 C-14.38466332 0.40381783 -7.31055671 0.07481026 0 0 Z " fill="#E41F26" transform="translate(2047.1875,110.6875)"/>
<path d="M0 0 C26.07 0 52.14 0 79 0 C79.01458252 11.75326904 79.02916504 23.50653809 79.04418945 35.6159668 C79.09305221 73.31624885 79.15649024 111.01649395 79.22898628 148.71673767 C79.24025307 154.58272399 79.25139175 160.44871055 79.26245117 166.31469727 C79.26465486 167.48240187 79.26685854 168.65010647 79.269129 169.85319606 C79.30440337 188.70615525 79.32932299 207.55911441 79.35034702 226.41209426 C79.37218794 245.78858313 79.40531621 265.16502956 79.44870156 284.54148227 C79.47507619 296.47664013 79.49287572 308.41174521 79.49934604 320.34693072 C79.50464371 328.55571705 79.52100524 336.76443725 79.54566566 344.97318801 C79.55953248 349.6936589 79.5689081 354.41401183 79.56500816 359.13450432 C79.53518115 404.78138799 83.40603552 450.44414878 104 492 C104.35175293 492.72509766 104.70350586 493.45019531 105.06591797 494.19726562 C119.39822435 523.5446759 141.42875897 542.59075517 172.0625 553.6875 C189.88768936 559.38479154 208.56401265 561.23381354 227.1875 561.25 C227.88942474 561.25067474 228.59134949 561.25134949 229.31454468 561.25204468 C263.9415678 561.19952669 297.0709489 553.81364794 324 531 C324.97710938 530.22398437 325.95421875 529.44796875 326.9609375 528.6484375 C359.29919635 501.62296586 370.17522987 448.93302801 374.75 409.5 C374.86569336 408.51862061 374.98138672 407.53724121 375.10058594 406.52612305 C377.53264896 383.38271479 377.16433484 359.9745222 377.20060861 336.73291028 C377.20874318 332.19819244 377.22239416 327.66349042 377.23532104 323.12878418 C377.25690215 315.302215 377.275112 307.47564408 377.29092598 299.6490612 C377.31379441 288.33361787 377.34191204 277.01819218 377.37124526 265.70276398 C377.41871537 247.33708814 377.46203419 228.971405 377.50268555 210.60571289 C377.54214597 192.78213943 377.58359683 174.9585724 377.62768555 157.13500977 C377.63177196 155.48259886 377.63177196 155.48259886 377.63594092 153.79680591 C377.64962213 148.26948126 377.66334206 142.7421567 377.67708123 137.21483219 C377.79072205 91.4765675 377.89682669 45.73828973 378 0 C403.74 0 429.48 0 456 0 C456.06623941 52.40896269 456.12159217 104.81788564 456.15319599 157.22687827 C456.15694774 163.42591046 456.16083074 169.62494256 456.16479492 175.82397461 C456.16558185 177.05799736 456.16636878 178.29202011 456.16717956 179.56343748 C456.18020395 199.49767848 456.20384131 219.43189331 456.23145839 239.36611883 C456.2595954 259.84772233 456.27619373 280.32931221 456.28226548 300.81093425 C456.28636478 313.43094288 456.29927268 326.05087752 456.3237494 338.67086335 C456.33970921 347.34589236 456.3443774 356.02088357 456.34050413 364.69592617 C456.33859839 369.68755348 456.34134567 374.67905224 456.35761642 379.6706562 C456.58188602 452.18061383 440.15150544 520.27483391 389 574 C388.38640625 574.65484375 387.7728125 575.3096875 387.140625 575.984375 C382.17135849 581.1429469 376.63206161 585.58892417 371 590 C370.46407227 590.42297363 369.92814453 590.84594727 369.37597656 591.28173828 C320.89351175 629.24229687 256.35159117 641.92223124 195.9609375 634.6875 C150.92625669 628.66614992 108.42184668 612.53715607 75 581 C73.71169526 579.9126708 72.42008845 578.82924038 71.125 577.75 C25.83211259 538.00503655 4.59685322 474.12377078 0.21034348 415.75639594 C-0.18074242 408.77223134 -0.13365348 401.78806784 -0.12025452 394.795578 C-0.12069138 393.08494037 -0.12156841 391.37430281 -0.12284368 389.66366559 C-0.12506598 384.99558006 -0.12109858 380.32751773 -0.11606562 375.65943515 C-0.11172859 370.61326341 -0.11320985 365.56709288 -0.1139679 360.5209198 C-0.11449107 351.78887309 -0.11136582 343.05683387 -0.10573006 334.32478905 C-0.09758711 321.69987157 -0.09499697 309.0749577 -0.09374207 296.45003787 C-0.09155594 275.96465536 -0.08490776 255.47927683 -0.07543945 234.99389648 C-0.06625398 215.09969096 -0.0591787 195.20548652 -0.05493164 175.3112793 C-0.05466892 174.08405252 -0.05440619 172.85682575 -0.05413551 171.59241029 C-0.05283043 165.43549119 -0.05156673 159.27857208 -0.05032361 153.12165296 C-0.03996466 102.08109843 -0.02153372 51.04055128 0 0 Z " fill="#000000" transform="translate(437,96)"/>
<path d="M0 0 C110.22 0 220.44 0 334 0 C334 23.76 334 47.52 334 72 C249.52 72 165.04 72 78 72 C78 129.09 78 186.18 78 245 C160.17 245 242.34 245 327 245 C327 268.76 327 292.52 327 317 C244.83 317 162.66 317 78 317 C78 394.22 78 471.44 78 551 C162.48 551 246.96 551 334 551 C334 574.76 334 598.52 334 623 C223.78 623 113.56 623 0 623 C0 417.41 0 211.82 0 0 Z " fill="#000000" transform="translate(1317,96)"/>
<path d="M0 0 C25.74 0 51.48 0 78 0 C78 181.83 78 363.66 78 551 C140.37 551 202.74 551 267 551 C267 574.76 267 598.52 267 623 C178.89 623 90.78 623 0 623 C0 417.41 0 211.82 0 0 Z " fill="#000000" transform="translate(999,96)"/>
<path d="M0 0 C12.49334889 -0.34154933 24.98350189 -0.6155589 37.48049927 -0.77718258 C43.28615397 -0.85483243 49.08839806 -0.95977503 54.89208984 -1.1315918 C103.13410503 -2.52227439 103.13410503 -2.52227439 120.60498047 13.00460815 C125.04319074 16.70226843 130.06012959 19.52939162 135 22.5 C137.00213867 23.7465716 139.00240289 24.99616358 141 26.25 C141.99 26.86875 142.98 27.4875 144 28.125 C201 63.75 201 63.75 204.00268555 65.62670898 C205.99369712 66.87107094 207.98474503 68.11537476 209.97583008 69.35961914 C215.11365946 72.57039435 220.25076749 75.78231503 225.38671875 78.99609375 C226.44181641 79.65609375 227.49691406 80.31609375 228.58398438 80.99609375 C230.57120343 82.23919994 232.55820327 83.48265666 234.54492188 84.7265625 C241.67568955 89.18642422 248.83647256 93.59167542 256 98 C256.33 71.93 256.66 45.86 257 19 C237.86 19 218.72 19 199 19 C199 12.73 199 6.46 199 0 C246.52 0 294.04 0 343 0 C343 6.27 343 12.54 343 19 C324.19 19 305.38 19 286 19 C286 54.31 286 89.62 286 126 C251.66162571 126 251.66162571 126 237.7890625 115.27734375 C232.06126836 110.98876692 226.10137939 107.22993903 220 103.5 C217.99862936 102.25219571 215.99862749 101.00219334 214 99.75 C213.01 99.13125 212.02 98.5125 211 97.875 C192 86 173 74.125 154 62.25 C153.00959717 61.6310083 152.01919434 61.0120166 150.9987793 60.37426758 C149.00281172 59.12676753 147.00688061 57.87920912 145.01098633 56.6315918 C139.94959084 53.46785818 134.88752606 50.30520439 129.82421875 47.14453125 C120.33061026 41.2172292 110.84117003 35.28355455 101.375 29.3125 C100.61147217 28.83143799 99.84794434 28.35037598 99.0612793 27.85473633 C98.3475415 27.40380615 97.63380371 26.95287598 96.8984375 26.48828125 C96.28661621 26.10196533 95.67479492 25.71564941 95.04443359 25.31762695 C92.34258208 23.57629752 89.67452466 21.78301644 87 20 C86.67 48.71 86.34 77.42 86 107 C104.81 107 123.62 107 143 107 C143 113.27 143 119.54 143 126 C95.81 126 48.62 126 0 126 C0 119.73 0 113.46 0 107 C18.81 107 37.62 107 57 107 C57 77.96 57 48.92 57 19 C38.19 19 19.38 19 0 19 C0 12.73 0 6.46 0 0 Z " fill="#000000" transform="translate(1314,842)"/>
<path d="M0 0 C94.71 0 189.42 0 287 0 C287 11.88 287 23.76 287 36 C277.1 36 267.2 36 257 36 C257 30.39 257 24.78 257 19 C200.9 19 144.8 19 87 19 C87 30.22 87 41.44 87 53 C134.19 53 181.38 53 230 53 C230 59.27 230 65.54 230 72 C182.81 72 135.62 72 87 72 C87 83.55 87 95.1 87 107 C143.1 107 199.2 107 257 107 C257 101.06 257 95.12 257 89 C266.9 89 276.8 89 287 89 C287 101.21 287 113.42 287 126 C192.29 126 97.58 126 0 126 C0 119.73 0 113.46 0 107 C19.14 107 38.28 107 58 107 C58 77.96 58 48.92 58 19 C38.86 19 19.72 19 0 19 C0 12.73 0 6.46 0 0 Z " fill="#000000" transform="translate(307,842)"/>
<path d="M0 0 C25.56640449 -0.06968203 51.13278582 -0.12310367 76.69926643 -0.15543652 C88.57233047 -0.17085351 100.44533412 -0.1918433 112.31835938 -0.22631836 C122.67640504 -0.25637992 133.03440695 -0.27561247 143.39249504 -0.28226548 C148.86836857 -0.28614957 154.34411699 -0.29516777 159.8199501 -0.31719017 C164.99259376 -0.33782119 170.16506286 -0.34378111 175.33774376 -0.33932304 C177.21842974 -0.34013652 179.09912265 -0.34594145 180.97977257 -0.35761642 C198.24855181 -0.45940063 215.72223606 0.89196834 232.375 5.75 C233.27653809 6.00531494 234.17807617 6.26062988 235.10693359 6.52368164 C255.90456404 12.63162509 278.74200699 23.45148202 290.53515625 42.4765625 C296.21383228 53.17167828 297.52092203 63.59150541 294.01953125 75.21484375 C287.46391347 93.12348544 271.30830542 103.67994513 254.875 111.625 C229.23846698 123.40511482 201.80349882 126.17185502 173.92089844 126.11352539 C172.01767478 126.11324284 170.11445101 126.11340257 168.21122742 126.1139679 C163.07779454 126.11425323 157.94438532 126.10839925 152.81095791 126.10139394 C147.43380798 126.09511638 142.05665742 126.09455313 136.67950439 126.09336853 C126.51197462 126.09026815 116.34445568 126.08207227 106.17693067 126.07201904 C94.59525389 126.06081765 83.01357658 126.05533733 71.43189573 126.05032361 C47.62125763 126.03988851 23.81062988 126.02211132 0 126 C0 119.73 0 113.46 0 107 C18.81 107 37.62 107 57 107 C57 77.96 57 48.92 57 19 C38.19 19 19.38 19 0 19 C0 12.73 0 6.46 0 0 Z M86 19 C86 48.04 86 77.08 86 107 C104.14940033 107.0874749 104.14940033 107.0874749 122.29882812 107.14648438 C129.71759602 107.16431336 137.13625127 107.18524326 144.55493164 107.22631836 C150.54612258 107.25927655 156.53719247 107.27692867 162.52846718 107.28463173 C164.79702977 107.2901106 167.06558687 107.30080596 169.33409691 107.31719017 C187.15715515 107.44061937 205.25088538 106.79735813 222.375 101.3125 C223.1882373 101.05831299 224.00147461 100.80412598 224.83935547 100.54223633 C239.92152186 95.59917983 254.87932555 87.20410653 263 73 C265.67519513 66.75373044 265.46662158 60.35796126 263.31640625 53.96875 C257.09501021 40.03282287 243.66671819 32.31289301 230 27 C210.16325778 19.80221881 191.14479679 18.56381096 170.1796875 18.70703125 C167.73918928 18.71264021 165.29868764 18.71690414 162.85818481 18.71989441 C156.4960973 18.73124091 150.13422171 18.76061815 143.7722168 18.79400635 C136.106027 18.83038509 128.43976556 18.843917 120.77351379 18.86136627 C109.18219602 18.89026319 97.59134146 18.94782157 86 19 Z " fill="#000000" transform="translate(6,842)"/>
<path d="M0 0 C544.5 0 1089 0 1650 0 C1650 2.97 1650 5.94 1650 9 C1105.5 9 561 9 0 9 C0 6.03 0 3.06 0 0 Z " fill="#E41F26" transform="translate(1,783)"/>
<path d="M0 0 C3.07344483 0.00314853 6.14591221 -0.02035842 9.21923828 -0.0456543 C27.57138479 -0.10540701 45.65849461 1.61748838 63.47314453 6.19067383 C64.5049585 6.44606934 65.53677246 6.70146484 66.59985352 6.96459961 C74.70363963 9.0132205 82.62706151 11.43239779 90.47314453 14.31567383 C90.47314453 11.01567383 90.47314453 7.71567383 90.47314453 4.31567383 C100.04314453 4.31567383 109.61314453 4.31567383 119.47314453 4.31567383 C119.47314453 16.19567383 119.47314453 28.07567383 119.47314453 40.31567383 C112.11001953 40.50129883 112.11001953 40.50129883 104.59814453 40.69067383 C103.0707666 40.74529785 101.54338867 40.79992187 99.96972656 40.85620117 C91.16656111 40.96312221 85.66030417 39.61354913 78.47314453 34.31567383 C67.40562283 28.65748522 55.50683908 25.24351972 43.47314453 22.31567383 C42.73016113 22.13343262 41.98717773 21.95119141 41.22167969 21.76342773 C15.76676291 15.91339541 -15.33360168 17.05902377 -40.52685547 23.31567383 C-41.40132324 23.52998047 -42.27579102 23.74428711 -43.17675781 23.96508789 C-58.58193467 27.87543576 -74.65485576 33.36844041 -86.52685547 44.31567383 C-87.17009766 44.8802832 -87.81333984 45.44489258 -88.47607422 46.02661133 C-93.67980964 50.8485213 -97.86529563 57.01234988 -98.76513672 64.22583008 C-99.0695254 73.05310186 -96.21286365 79.69039654 -90.58935547 86.44067383 C-70.56941853 107.27575477 -35.07611664 114.47577665 -7.31567383 115.42553711 C26.34638004 116.00849344 56.59173015 111.61462713 86.47314453 95.31567383 C49.84314453 94.98567383 13.21314453 94.65567383 -24.52685547 94.31567383 C-24.52685547 88.04567383 -24.52685547 81.77567383 -24.52685547 75.31567383 C22.99314453 75.31567383 70.51314453 75.31567383 119.47314453 75.31567383 C119.47314453 93.46567383 119.47314453 111.61567383 119.47314453 130.31567383 C109.90314453 130.31567383 100.33314453 130.31567383 90.47314453 130.31567383 C90.47314453 126.68567383 90.47314453 123.05567383 90.47314453 119.31567383 C89.61978516 119.67918945 88.76642578 120.04270508 87.88720703 120.41723633 C36.13854275 141.57552221 -32.32151098 140.57669803 -83.91748047 119.33129883 C-102.45169046 111.4217952 -120.01247389 100.79068991 -129.52685547 82.31567383 C-133.51397845 71.93784309 -133.60773405 62.10708492 -129.51513672 51.75708008 C-119.2890223 30.59854303 -96.28873512 19.1405928 -75.2097168 11.59228516 C-66.68541269 8.65925105 -58.09556135 6.36664827 -49.27685547 4.50317383 C-48.35654541 4.30836426 -47.43623535 4.11355469 -46.48803711 3.9128418 C-30.99115223 0.83381084 -15.76926615 -0.03360459 0 0 Z " fill="#000000" transform="translate(1166.52685546875,837.684326171875)"/>
<path d="M0 0 C1.14438538 0.00149048 2.28877075 0.00298096 3.46783447 0.0045166 C68.62491054 0.15620527 68.62491054 0.15620527 84.9375 8.3125 C84.9375 6.9925 84.9375 5.6725 84.9375 4.3125 C94.5075 4.3125 104.0775 4.3125 113.9375 4.3125 C113.9375 16.1925 113.9375 28.0725 113.9375 40.3125 C104.3675 40.3125 94.7975 40.3125 84.9375 40.3125 C84.9375 36.0225 84.9375 31.7325 84.9375 27.3125 C82.53791016 26.879375 82.53791016 26.879375 80.08984375 26.4375 C76.30673812 25.75065199 72.52839251 25.04515591 68.75390625 24.3125 C27.2605465 16.34655782 -40.10648812 7.72118464 -78.36328125 29.96875 C-80.38380186 31.56658699 -81.70711667 33.12143554 -83.0625 35.3125 C-83.14281601 39.72988048 -82.62941955 41.67098578 -79.6875 45 C-72.47050673 50.13096258 -64.1656193 51.62350206 -55.57543945 52.8359375 C-54.65751523 52.96560913 -53.73959101 53.09528076 -52.7938509 53.22888184 C-43.3634034 54.49861236 -33.92392118 55.13411275 -24.42653465 55.64916992 C-21.31346397 55.81817339 -18.20122304 55.99867234 -15.08894348 56.18164062 C-8.47650575 56.56839901 -1.86332596 56.94128661 4.75 57.3125 C12.42193989 57.74389127 20.09345566 58.18142794 27.76431847 58.6315918 C30.78101204 58.80593925 33.7981172 58.97068955 36.81538391 59.13476562 C46.87561205 59.70625139 56.86005981 60.55339226 66.86206055 61.7890625 C67.84868337 61.91051636 68.83530619 62.03197021 69.85182667 62.15710449 C86.19531911 64.27922445 106.64068172 68.65608317 117.4765625 82.2421875 C120.91142285 87.99990304 121.53913653 93.75020524 120.9375 100.3125 C118.22771251 109.04403746 113.24295343 114.00633546 105.375 118.375 C51.28219565 146.52134318 -33.03301095 137.47030511 -91.0625 126.3125 C-91.3925 127.6325 -91.7225 128.9525 -92.0625 130.3125 C-101.9625 130.3125 -111.8625 130.3125 -122.0625 130.3125 C-122.0625 118.1025 -122.0625 105.8925 -122.0625 93.3125 C-112.1625 93.3125 -102.2625 93.3125 -92.0625 93.3125 C-92.0625 97.6025 -92.0625 101.8925 -92.0625 106.3125 C-79.40998294 109.03682921 -66.79713202 111.53843229 -53.9375 113.0625 C-52.48549194 113.23519409 -52.48549194 113.23519409 -51.00415039 113.41137695 C-48.02582918 113.74459632 -45.04684815 114.03852628 -42.0625 114.3125 C-40.49786011 114.45715698 -40.49786011 114.45715698 -38.90161133 114.60473633 C-27.44472397 115.51457895 -15.98202577 115.49860786 -4.49536133 115.49780273 C-1.03128598 115.49998033 2.4324654 115.51817225 5.89648438 115.53710938 C48.27285894 116.50727787 48.27285894 116.50727787 85.9375 100.3125 C87.27082358 97.14585649 87.02337373 95.62957224 86.125 92.3125 C80.91228764 85.16363734 71.38369253 83.09411338 63.03379822 81.63482666 C59.21373546 81.04745409 55.37714237 80.71112219 51.52734375 80.3828125 C50.55516907 80.29921982 49.58299438 80.21562714 48.58135986 80.12950134 C38.63134451 79.31140962 28.66883607 78.71618774 18.703125 78.12890625 C17.83960104 78.0779738 16.97607708 78.02704136 16.08638573 77.97456551 C7.97305931 77.49730068 -0.1406386 77.02658661 -8.25488281 76.56518555 C-95.32549076 71.60099926 -95.32549076 71.60099926 -112.5 52.8125 C-116.57918988 47.62594002 -117.6059084 42.47522699 -117.4296875 35.96484375 C-116.48111549 29.11292467 -113.21736526 23.87934964 -107.9375 19.5 C-78.3663814 -1.23377281 -34.45566014 -0.11227657 0 0 Z " fill="#000000" transform="translate(743.0625,837.6875)"/>
<path d="M0 0 C47.19 0 94.38 0 143 0 C143 6.27 143 12.54 143 19 C124.19 19 105.38 19 86 19 C86 48.04 86 77.08 86 107 C104.81 107 123.62 107 143 107 C143 113.27 143 119.54 143 126 C95.81 126 48.62 126 0 126 C0 119.73 0 113.46 0 107 C18.81 107 37.62 107 57 107 C57 77.96 57 48.92 57 19 C38.19 19 19.38 19 0 19 C0 12.73 0 6.46 0 0 Z " fill="#000000" transform="translate(885,842)"/>
</svg>
