<?xml version="1.0" standalone="no"?>
<!DOCTYPE svg PUBLIC "-//W3C//DTD SVG 20010904//EN"
 "http://www.w3.org/TR/2001/REC-SVG-20010904/DTD/svg10.dtd">
<svg version="1.0" xmlns="http://www.w3.org/2000/svg"
 width="2730.000000pt" height="1004.000000pt" viewBox="0 0 2730.000000 1004.000000"
 preserveAspectRatio="xMidYMid meet">
<metadata>
Created by potrace 1.16, written by Peter Selinger 2001-2019
</metadata>
<g transform="translate(0.000000,1004.000000) scale(0.100000,-0.100000)"
fill="#000000" stroke="none">
<path d="M22019 10030 c-666 -36 -1309 -199 -1904 -485 -143 -68 -388 -201
-430 -232 l-20 -15 20 7 c141 53 405 109 618 131 226 23 652 15 850 -15 251
-39 438 -96 617 -187 407 -207 629 -531 706 -1029 22 -143 22 -465 1 -620
-104 -752 -502 -1394 -1317 -2125 -203 -182 -355 -310 -759 -638 -676 -549
-941 -794 -1166 -1077 -56 -70 -155 -209 -155 -218 0 -2 57 -7 128 -11 70 -3
231 -20 357 -36 890 -116 986 -125 1300 -124 209 1 269 4 365 22 320 58 523
178 892 523 78 73 119 105 124 97 12 -19 8 -692 -5 -813 -27 -258 -65 -412
-135 -560 -132 -277 -356 -422 -730 -471 -96 -13 -175 -15 -381 -11 -392 9
-556 34 -1125 172 -558 136 -711 159 -1045 160 l-220 0 -105 -36 c-90 -31
-396 -162 -408 -174 -6 -6 126 -196 223 -320 340 -438 763 -829 1220 -1128
854 -558 1830 -837 2855 -814 240 5 454 22 636 50 l79 12 -90 24 c-197 53
-359 175 -458 345 -131 225 -193 634 -157 1036 53 591 280 1207 707 1918 416
695 986 1439 2026 2647 152 176 273 323 269 327 -4 3 -74 13 -157 22 -864 91
-1584 3 -2105 -259 -177 -89 -305 -178 -447 -309 l-81 -76 -11 51 c-51 235
-56 281 -55 504 0 195 2 229 22 300 115 421 458 628 1102 665 91 5 819 10
1633 10 l1467 0 -39 79 c-61 120 -144 261 -247 418 -619 945 -1534 1653 -2599
2008 -499 167 -958 246 -1500 258 -115 3 -280 1 -366 -3z"/>
<path d="M0 5966 l0 -3116 395 0 395 0 0 1320 0 1320 154 0 154 0 915 -1317
915 -1318 476 -3 c262 -1 476 0 476 3 0 3 -439 611 -975 1352 -537 740 -975
1347 -973 1348 2 1 52 12 111 24 674 134 1185 642 1322 1315 130 636 -58 1278
-496 1689 -264 249 -594 392 -1032 446 -294 37 -425 43 -1134 48 l-703 5 0
-3116z m1153 2404 c410 -18 736 -86 1009 -209 290 -130 453 -361 499 -710 15
-109 6 -370 -16 -470 -55 -248 -172 -426 -377 -571 -144 -102 -303 -167 -513
-209 -210 -42 -324 -53 -647 -58 l-318 -6 0 1122 0 1121 73 0 c39 0 170 -5
290 -10z"/>
<path d="M4373 6968 c3 -1938 5 -2123 20 -2233 51 -354 169 -704 328 -970 294
-493 741 -828 1294 -969 205 -53 358 -70 630 -70 272 0 396 13 600 61 699 165
1230 630 1498 1313 76 193 118 352 160 605 21 130 21 131 24 2253 l3 2122
-390 0 -390 0 0 -1817 c0 -1027 -5 -1909 -10 -2026 -25 -541 -147 -972 -362
-1284 -160 -231 -410 -389 -721 -453 -392 -81 -840 -38 -1132 108 -162 81
-326 226 -421 372 -116 179 -228 466 -278 710 -63 311 -60 169 -63 2378 l-4
2012 -395 0 -395 0 4 -2112z"/>
<path d="M9990 5965 l0 -3115 1335 0 1335 0 0 360 0 360 -945 0 -945 0 0 2755
0 2755 -390 0 -390 0 0 -3115z"/>
<path d="M13170 5965 l0 -3115 1670 0 1670 0 0 360 0 360 -1280 0 -1280 0 0
1170 0 1170 1245 0 1245 0 0 360 0 360 -1245 0 -1245 0 0 865 0 865 1280 0
1280 0 0 360 0 360 -1670 0 -1670 0 0 -3115z"/>
<path d="M20263 8906 c-278 -53 -432 -193 -490 -446 -25 -111 -25 -438 1 -535
49 -188 152 -337 273 -397 l66 -32 -39 -33 c-142 -121 -341 -228 -501 -269
-86 -22 -114 -25 -223 -21 -155 5 -230 27 -338 100 -176 121 -287 323 -323
594 -15 113 -6 321 20 434 23 100 79 251 122 326 17 29 26 53 21 53 -6 0 -72
-64 -148 -142 -810 -840 -1274 -1821 -1411 -2983 -22 -190 -25 -842 -5 -1030
76 -693 266 -1315 579 -1893 l58 -107 7 110 c42 630 324 1176 986 1902 59 65
204 219 322 341 579 602 734 769 917 989 516 620 801 1180 902 1773 48 284 53
598 12 754 -59 224 -198 405 -379 493 -54 26 -65 28 -207 30 -93 1 -177 -3
-222 -11z"/>
<path d="M26758 6887 c-1149 -1749 -2402 -3774 -2619 -4232 -235 -497 -359
-1033 -328 -1416 12 -155 38 -252 98 -374 63 -129 129 -214 264 -347 l109
-107 120 54 c816 371 1571 1023 2081 1800 432 658 691 1375 788 2180 27 219
37 694 20 927 -40 547 -160 1058 -363 1556 -28 67 -53 122 -57 122 -3 0 -54
-73 -113 -163z"/>
<path d="M10 2165 l0 -45 8250 0 8250 0 0 45 0 45 -8250 0 -8250 0 0 -45z"/>
<path d="M7060 1650 c-412 -32 -689 -124 -766 -255 -76 -130 -23 -266 134
-348 175 -91 283 -107 1052 -152 234 -13 468 -30 520 -36 175 -21 278 -67 300
-135 11 -32 10 -40 -7 -63 -23 -31 -123 -83 -196 -100 -208 -49 -425 -65 -777
-58 -330 7 -589 35 -757 83 l-53 15 0 64 0 65 -150 0 -150 0 0 -185 0 -185
150 0 c150 0 150 0 150 23 l0 23 133 -23 c515 -86 1224 -78 1607 18 147 36
285 103 334 161 94 109 66 260 -64 346 -164 110 -312 135 -1030 177 -624 36
-715 46 -811 95 -46 24 -89 74 -89 104 0 53 79 110 196 140 331 86 1004 81
1387 -10 l107 -26 0 -64 0 -64 145 0 145 0 0 180 0 180 -145 0 c-140 0 -145
-1 -145 -21 0 -15 -5 -19 -17 -15 -41 12 -197 37 -323 52 -159 19 -704 27
-880 14z"/>
<path d="M11425 1654 c-108 -12 -302 -49 -405 -79 -230 -66 -396 -153 -521
-273 -308 -294 -150 -644 382 -847 109 -42 298 -89 449 -112 162 -25 578 -25
741 0 166 25 368 76 482 122 15 6 17 1 17 -49 l0 -56 145 0 145 0 0 275 0 275
-720 0 -720 0 0 -95 0 -95 568 -2 567 -3 -90 -46 c-234 -121 -530 -179 -845
-166 -596 25 -1028 287 -935 568 26 77 141 190 250 246 146 74 297 120 495
149 144 21 478 15 613 -10 177 -34 350 -94 462 -161 l57 -35 149 0 149 0 0
180 0 180 -145 0 -145 0 0 -50 c0 -55 -4 -57 -58 -34 -59 24 -246 72 -377 95
-100 18 -165 22 -395 24 -151 2 -293 1 -315 -1z"/>
<path d="M60 1525 l0 -95 285 0 285 0 0 -440 0 -440 -285 0 -285 0 0 -95 0
-95 943 0 c1127 0 1193 4 1463 94 186 63 317 140 420 248 298 311 71 697 -503
854 -220 60 -159 57 -1285 61 l-1038 4 0 -96z m2110 -122 c268 -66 452 -177
512 -310 29 -64 29 -144 -1 -206 -48 -98 -207 -212 -373 -266 -191 -63 -204
-64 -820 -68 l-568 -4 0 441 0 441 583 -4 c548 -3 587 -5 667 -24z"/>
<path d="M3070 1525 l0 -95 290 0 290 0 0 -440 0 -440 -290 0 -290 0 0 -95 0
-95 1435 0 1435 0 0 185 0 185 -150 0 -150 0 0 -90 0 -90 -850 0 -850 0 0 175
0 175 715 0 715 0 0 95 0 95 -715 0 -715 0 0 170 0 170 850 0 850 0 0 -85 0
-85 150 0 150 0 0 180 0 180 -1435 0 -1435 0 0 -95z"/>
<path d="M8850 1525 l0 -95 285 0 285 0 0 -440 0 -440 -285 0 -285 0 0 -95 0
-95 715 0 715 0 0 95 0 95 -285 0 -285 0 0 440 0 440 285 0 285 0 0 95 0 95
-715 0 -715 0 0 -95z"/>
<path d="M13140 1525 l0 -95 285 0 285 0 0 -440 0 -440 -285 0 -285 0 0 -95 0
-95 715 0 715 0 0 95 0 95 -285 0 -285 0 0 439 0 439 854 -534 853 -534 147 0
146 0 0 535 0 535 285 0 285 0 0 95 0 95 -720 0 -720 0 0 -95 0 -95 290 0 290
0 0 -401 c0 -317 -3 -399 -12 -393 -7 4 -365 227 -794 496 l-782 488 -491 0
-491 0 0 -95z"/>
</g>
</svg>
