<?xml version="1.0" standalone="no"?>
<!DOCTYPE svg PUBLIC "-//W3C//DTD SVG 20010904//EN"
 "http://www.w3.org/TR/2001/REC-SVG-20010904/DTD/svg10.dtd">
<svg version="1.0" xmlns="http://www.w3.org/2000/svg"
 width="709.000000pt" height="706.000000pt" viewBox="0 0 709.000000 706.000000"
 preserveAspectRatio="xMidYMid meet">
<metadata>
Created by potrace 1.16, written by Peter Selinger 2001-2019
</metadata>
<g transform="translate(0.000000,706.000000) scale(0.100000,-0.100000)"
fill="#000000" stroke="none">
<path d="M3265 7050 c-33 -5 -89 -11 -125 -15 -377 -37 -846 -181 -1203 -369
-106 -56 -234 -132 -206 -123 228 74 413 101 689 101 262 0 442 -24 622 -84
445 -149 666 -482 668 -1006 0 -115 -18 -288 -40 -384 -75 -321 -239 -626
-502 -935 -133 -155 -445 -449 -698 -655 -30 -25 -64 -53 -75 -62 -11 -9 -87
-72 -170 -138 -82 -67 -161 -132 -175 -144 -14 -11 -66 -55 -115 -96 -259
-217 -461 -422 -584 -595 l-42 -60 58 -7 c32 -4 123 -14 203 -23 80 -8 179
-20 220 -26 417 -56 454 -59 705 -66 288 -7 421 14 579 94 75 37 244 161 306
223 55 55 141 130 149 130 15 0 15 -455 1 -588 -25 -224 -64 -351 -146 -467
-50 -71 -109 -122 -184 -160 -135 -69 -257 -90 -500 -89 -293 1 -426 22 -885
134 -311 76 -463 99 -680 102 -130 1 -158 -2 -215 -20 -58 -20 -299 -120 -309
-128 -6 -5 143 -220 169 -244 3 -3 32 -39 65 -80 108 -136 382 -402 537 -522
229 -178 493 -339 732 -445 95 -42 240 -98 311 -120 28 -8 66 -21 85 -28 33
-12 75 -24 158 -44 20 -5 64 -16 97 -24 99 -25 253 -52 350 -62 33 -3 89 -10
125 -15 84 -12 566 -12 650 0 36 5 88 12 115 15 28 3 70 8 95 12 50 6 55 3
-62 38 -114 33 -239 138 -293 245 -39 78 -73 192 -90 302 -27 177 -15 485 25
662 31 136 46 191 81 300 72 217 214 521 345 740 30 49 54 90 54 92 0 22 336
509 484 704 171 223 614 772 645 800 3 3 40 46 81 95 41 50 77 92 80 95 3 3
75 86 160 185 l154 180 -50 7 c-312 42 -803 37 -1044 -12 -370 -75 -618 -190
-813 -377 -31 -31 -59 -54 -62 -52 -7 7 -33 147 -46 247 -14 108 -7 272 15
353 54 199 202 342 421 408 184 56 159 54 1393 60 l1143 6 -47 90 c-25 50 -54
101 -64 115 -9 14 -19 30 -21 35 -4 9 -140 214 -179 270 -21 29 -129 163 -161
200 -144 164 -201 222 -329 335 -46 41 -91 81 -99 88 -8 8 -37 31 -65 52 -28
21 -78 59 -111 84 -33 25 -63 46 -67 46 -3 0 -13 6 -21 14 -44 44 -413 254
-525 299 -23 9 -63 26 -89 38 -26 12 -61 27 -78 34 -32 14 -265 94 -293 101
-9 2 -42 11 -72 19 -30 9 -73 20 -95 25 -221 47 -319 65 -430 76 -33 3 -89 10
-125 15 -78 10 -500 10 -585 -1z"/>
<path d="M2198 6269 c-178 -19 -297 -85 -358 -199 -43 -82 -55 -148 -55 -310
0 -169 11 -225 66 -324 34 -63 103 -132 146 -148 39 -14 41 -21 9 -41 -13 -9
-30 -22 -37 -30 -31 -31 -150 -100 -223 -129 -395 -160 -717 88 -716 551 1
163 37 309 106 429 14 23 21 42 15 42 -11 0 -249 -251 -317 -335 -85 -105
-205 -268 -236 -320 -16 -27 -54 -90 -84 -140 -68 -112 -196 -373 -234 -475
-7 -19 -19 -49 -26 -67 -8 -17 -14 -38 -14 -46 0 -9 -4 -18 -9 -21 -5 -3 -11
-16 -14 -28 -3 -13 -19 -70 -36 -128 -66 -220 -91 -339 -121 -560 -41 -310
-41 -666 2 -935 6 -38 12 -81 14 -95 52 -343 174 -716 340 -1040 83 -163 80
-162 89 -39 21 308 151 627 378 933 161 216 293 365 624 706 134 138 165 170
288 302 511 545 750 928 874 1398 41 158 55 269 55 455 1 148 -2 191 -17 239
-63 205 -213 349 -372 359 -33 3 -94 1 -137 -4z"/>
<path d="M6713 4848 c-125 -191 -290 -444 -383 -589 -47 -73 -96 -149 -109
-168 -30 -45 -526 -828 -566 -895 -17 -27 -37 -59 -45 -72 -106 -164 -570
-929 -570 -939 0 -2 -21 -39 -46 -82 -89 -149 -174 -329 -229 -483 -96 -273
-127 -427 -128 -650 -2 -177 12 -250 69 -365 43 -87 92 -150 188 -244 l76 -73
32 13 c103 41 298 146 472 254 34 21 194 135 261 186 148 112 356 309 485 459
36 41 68 77 71 80 13 12 160 211 202 275 26 39 51 75 55 80 55 68 302 558 302
598 0 7 4 17 9 23 12 12 72 194 105 319 15 55 33 123 40 150 19 70 52 255 62
345 3 30 10 82 15 115 12 79 12 593 -1 687 -5 40 -12 96 -15 123 -3 28 -12 86
-20 130 -8 44 -17 96 -20 115 -3 19 -12 60 -20 90 -7 30 -19 75 -25 100 -15
63 -60 211 -70 235 -5 11 -16 40 -24 65 -15 48 -27 79 -59 150 -11 25 -23 56
-26 68 -6 21 -17 8 -88 -100z"/>
</g>
</svg>
