<?xml version="1.0" standalone="no"?>
<!DOCTYPE svg PUBLIC "-//W3C//DTD SVG 20010904//EN"
 "http://www.w3.org/TR/2001/REC-SVG-20010904/DTD/svg10.dtd">
<svg version="1.0" xmlns="http://www.w3.org/2000/svg"
 width="670.000000pt" height="757.000000pt" viewBox="0 0 670.000000 757.000000"
 preserveAspectRatio="xMidYMid meet">
<metadata>
Created by potrace 1.16, written by Peter Selinger 2001-2019
</metadata>
<g transform="translate(0.000000,757.000000) scale(0.100000,-0.100000)"
fill="#000000" stroke="none">
<path d="M3140 7081 c-123 -10 -273 -29 -363 -45 -102 -19 -268 -55 -297 -66
-14 -5 -77 -25 -140 -44 -64 -20 -154 -52 -200 -72 -47 -19 -103 -42 -125 -51
-93 -38 -385 -194 -385 -206 0 -9 9 -7 107 24 152 47 294 63 553 64 215 0 260
-3 364 -23 182 -35 320 -84 433 -153 52 -32 56 -35 136 -109 121 -113 196
-249 243 -445 21 -87 29 -359 15 -482 -11 -96 -64 -325 -80 -348 -4 -5 -13
-28 -20 -50 -21 -62 -100 -222 -153 -307 -182 -299 -476 -604 -963 -1001 -263
-215 -411 -336 -510 -420 -120 -101 -373 -359 -444 -452 -26 -35 -81 -121 -81
-127 0 -5 30 -8 68 -8 64 -1 124 -7 592 -65 317 -39 443 -48 600 -42 305 12
473 87 734 329 49 46 93 85 99 87 6 2 8 -106 5 -295 -4 -286 -6 -304 -33 -414
-34 -142 -80 -236 -152 -312 -88 -92 -204 -147 -348 -167 -111 -16 -399 -13
-550 4 -138 16 -167 22 -450 91 -99 24 -214 51 -255 59 -41 9 -84 19 -95 21
-113 27 -452 42 -535 23 -55 -12 -224 -79 -307 -121 l-23 -11 22 -36 c43 -71
202 -274 293 -374 326 -360 702 -631 1145 -825 312 -136 639 -220 1005 -260
88 -9 539 -9 625 0 115 12 234 29 239 33 2 3 -2 6 -10 8 -194 55 -295 130
-364 272 -70 144 -89 250 -89 495 -1 163 3 216 22 320 30 157 88 363 131 465
96 224 143 325 182 398 27 48 49 89 49 91 0 5 200 337 212 351 4 5 26 37 48
70 83 126 147 215 286 400 219 290 464 593 732 905 36 41 84 98 107 125 24 28
86 99 138 160 62 71 92 112 84 116 -53 29 -693 44 -877 20 -232 -29 -465 -93
-620 -169 -75 -37 -200 -115 -248 -156 -13 -11 -30 -25 -36 -31 -7 -5 -26 -23
-43 -38 l-31 -28 -11 63 c-7 35 -14 74 -17 88 -3 14 -8 87 -11 162 -8 194 20
304 105 416 93 124 231 193 461 232 110 19 169 20 1174 20 l1059 0 -58 108
c-75 140 -221 359 -331 497 -200 251 -572 587 -793 715 -19 12 -62 37 -95 57
-139 84 -216 123 -434 220 -55 25 -251 94 -326 115 -194 55 -307 77 -595 118
-99 14 -450 20 -570 11z"/>
<path d="M2010 6341 c-110 -24 -177 -58 -230 -118 -81 -92 -104 -188 -97 -398
5 -149 16 -194 74 -292 28 -47 108 -123 130 -123 28 0 6 -25 -63 -73 -139 -97
-253 -139 -385 -139 -178 -1 -309 82 -387 246 -97 202 -80 515 38 708 11 18
20 37 20 43 0 27 -314 -311 -417 -450 -138 -185 -286 -445 -396 -695 -24 -57
-87 -228 -87 -240 0 -6 -4 -18 -10 -28 -13 -24 -54 -176 -84 -312 -26 -117
-51 -285 -64 -420 -9 -95 -9 -471 0 -570 32 -360 116 -698 255 -1025 40 -96
166 -345 173 -345 4 0 10 39 13 87 21 332 166 655 455 1015 127 158 178 214
471 518 399 416 534 566 681 764 324 436 474 829 486 1281 6 241 -57 400 -204
517 -83 66 -215 84 -372 49z"/>
<path d="M6283 4958 c-58 -90 -144 -222 -192 -295 -47 -73 -107 -165 -132
-205 -26 -40 -97 -151 -158 -246 -61 -96 -111 -176 -111 -178 0 -3 -5 -10 -10
-17 -6 -7 -20 -28 -33 -47 -67 -105 -233 -367 -242 -382 -5 -10 -39 -64 -75
-120 -36 -57 -69 -111 -75 -120 -28 -49 -152 -249 -180 -293 -34 -52 -163
-263 -194 -318 -10 -18 -35 -61 -55 -95 -20 -35 -44 -76 -54 -90 -63 -91 -213
-389 -266 -527 -15 -38 -31 -79 -35 -90 -24 -58 -73 -255 -92 -370 -36 -219
-20 -407 47 -553 51 -111 230 -308 269 -295 11 3 70 30 130 60 421 208 781
490 1081 848 97 115 234 298 234 311 0 4 11 21 24 38 13 17 33 49 45 71 11 22
32 58 45 80 40 65 154 300 187 383 125 318 196 611 230 952 13 127 6 642 -10
720 -6 30 -20 107 -30 170 -32 192 -59 297 -133 515 -34 99 -98 255 -104 255
-3 0 -52 -73 -111 -162z"/>
</g>
</svg>
