<?xml version="1.0" standalone="no"?>
<!DOCTYPE svg PUBLIC "-//W3C//DTD SVG 20010904//EN"
 "http://www.w3.org/TR/2001/REC-SVG-20010904/DTD/svg10.dtd">
<svg version="1.0" xmlns="http://www.w3.org/2000/svg"
 width="3444.000000pt" height="1357.000000pt" viewBox="0 0 3444.000000 1357.000000"
 preserveAspectRatio="xMidYMid meet">
<metadata>
Created by potrace 1.16, written by Peter Selinger 2001-2019
</metadata>
<g transform="translate(0.000000,1357.000000) scale(0.100000,-0.100000)"
fill="#000000" stroke="none">
<path d="M27145 12693 c-38 -2 -146 -10 -240 -18 -754 -68 -1468 -273 -2145
-616 -200 -101 -420 -226 -420 -239 0 -5 39 5 88 21 188 64 438 114 702 141
161 16 649 16 800 -1 619 -69 1029 -241 1330 -558 100 -105 166 -199 238 -342
263 -523 254 -1327 -23 -2016 -277 -689 -784 -1305 -1735 -2106 -69 -58 -296
-244 -505 -414 -209 -170 -420 -342 -470 -384 -441 -369 -786 -709 -981 -966
-67 -89 -142 -197 -150 -218 -4 -11 31 -16 173 -26 98 -6 279 -25 403 -41 124
-16 349 -45 500 -64 582 -75 948 -102 1200 -86 575 34 827 157 1369 665 78 74
105 94 112 84 12 -20 11 -729 -1 -885 -37 -460 -135 -750 -319 -946 -162 -173
-351 -265 -646 -315 -91 -15 -165 -18 -420 -18 -500 0 -742 35 -1447 210 -504
126 -728 164 -1088 186 -301 18 -394 5 -627 -87 -134 -53 -354 -152 -367 -164
-18 -18 217 -343 424 -590 146 -174 548 -576 715 -714 398 -330 756 -563 1210
-786 280 -138 472 -217 755 -310 427 -141 847 -229 1330 -277 219 -21 802 -24
1020 -5 234 21 507 58 497 68 -2 2 -41 14 -86 25 -447 113 -676 440 -741 1059
-13 124 -13 480 0 611 109 1100 733 2298 2074 3979 347 435 719 879 1284 1534
123 142 221 260 218 263 -20 20 -522 62 -826 70 -1081 25 -1921 -227 -2441
-734 l-65 -64 -27 138 c-44 226 -48 260 -54 443 -8 258 18 419 98 588 167 358
522 547 1129 602 74 6 772 10 1953 10 l1837 0 -45 89 c-112 225 -322 560 -493
791 -550 740 -1247 1336 -2053 1754 -935 485 -1961 707 -3044 659z"/>
<path d="M1010 7871 l0 -3691 465 0 465 0 0 1560 0 1560 187 -2 188 -3 1080
-1557 1080 -1557 563 0 c309 -1 562 2 562 7 0 4 -520 724 -1156 1601 -635 876
-1154 1594 -1152 1595 2 1 64 14 138 29 305 59 585 185 835 376 154 117 339
319 455 496 342 524 422 1303 194 1911 -114 307 -255 527 -473 744 -158 157
-273 239 -476 340 -259 129 -470 188 -815 229 -329 40 -419 43 -1282 48 l-858
5 0 -3691z m1485 2849 c489 -35 918 -145 1200 -309 105 -60 256 -209 315 -308
113 -193 161 -398 162 -683 1 -404 -99 -680 -324 -896 -207 -199 -428 -308
-757 -374 -274 -55 -564 -80 -933 -80 l-218 0 0 1330 0 1330 208 0 c114 0 270
-5 347 -10z"/>
<path d="M6193 9068 c3 -2689 1 -2543 53 -2828 106 -577 374 -1109 744 -1479
489 -489 1135 -741 1899 -741 781 0 1426 252 1922 751 358 360 611 856 723
1419 64 318 60 117 63 2868 l3 2502 -465 0 -465 0 0 -2262 c0 -1417 -4 -2317
-10 -2408 -48 -687 -251 -1257 -560 -1571 -284 -288 -663 -420 -1205 -420
-481 0 -821 101 -1106 330 -318 253 -557 791 -633 1421 -33 270 -36 471 -36
2688 l0 2222 -465 0 -466 0 4 -2492z"/>
<path d="M12860 7870 l0 -3690 1585 0 1585 0 0 425 0 425 -1120 0 -1120 0 0
3265 0 3265 -465 0 -465 0 0 -3690z"/>
<path d="M16630 7870 l0 -3690 1985 0 1985 0 0 425 0 425 -1520 0 -1520 0 0
1390 0 1390 1475 0 1475 0 0 425 0 425 -1475 0 -1475 0 0 1025 0 1025 1520 0
1520 0 0 425 0 425 -1985 0 -1985 0 0 -3690z"/>
<path d="M25106 11379 c-204 -28 -361 -94 -465 -197 -158 -156 -217 -361 -208
-722 3 -159 8 -199 31 -285 57 -217 175 -388 317 -459 l70 -35 -93 -72 c-475
-366 -969 -403 -1286 -96 -193 187 -286 448 -286 802 0 259 43 442 160 673 34
67 59 122 55 122 -15 0 -390 -389 -492 -510 -1256 -1485 -1706 -3448 -1227
-5345 52 -209 179 -589 263 -790 69 -168 224 -487 297 -615 l42 -75 12 160
c28 372 107 652 284 1010 142 288 290 512 541 825 216 268 359 424 899 985
391 406 567 593 715 760 774 871 1166 1613 1285 2431 47 325 47 620 -1 806
-72 285 -261 521 -488 609 -47 19 -79 23 -206 25 -82 1 -181 -2 -219 -7z"/>
<path d="M32842 9113 c-368 -545 -1641 -2540 -2234 -3503 -634 -1029 -916
-1526 -1052 -1852 -315 -761 -398 -1452 -225 -1876 71 -173 198 -346 367 -501
51 -47 92 -91 92 -98 0 -7 2 -13 5 -13 14 0 249 111 394 186 573 297 1068 666
1531 1140 907 930 1487 2142 1639 3424 32 267 41 430 41 725 0 149 -5 333 -10
410 -44 620 -181 1226 -403 1785 -57 143 -95 230 -102 230 -2 0 -22 -26 -43
-57z"/>
<path d="M1010 3365 l0 -55 9795 0 9795 0 0 55 0 55 -9795 0 -9795 0 0 -55z"/>
<path d="M14685 2759 c-660 -34 -1224 -277 -1382 -595 -37 -77 -38 -80 -38
-194 0 -115 0 -117 39 -195 222 -450 1173 -708 2076 -564 139 22 353 75 454
113 l66 25 0 -64 0 -65 175 0 175 0 0 325 0 325 -855 0 -855 0 0 -115 0 -115
668 0 c746 -1 700 5 551 -70 -147 -74 -340 -131 -564 -166 -135 -21 -476 -24
-615 -5 -457 61 -808 234 -908 449 -126 271 188 549 747 662 275 55 627 55
902 0 205 -42 353 -95 502 -180 l87 -50 170 0 170 0 0 215 0 215 -175 0 -175
0 0 -60 c0 -33 -2 -60 -5 -60 -2 0 -26 8 -52 19 -71 28 -254 77 -369 100 -225
45 -526 64 -789 50z"/>
<path d="M9470 2753 c-435 -29 -654 -70 -834 -157 -121 -58 -169 -95 -206
-158 -26 -46 -30 -63 -30 -128 0 -52 6 -88 19 -116 64 -142 312 -250 661 -288
80 -9 413 -32 740 -51 327 -19 629 -40 670 -46 211 -29 340 -101 340 -191 0
-66 -112 -132 -296 -173 -455 -101 -1343 -79 -1803 45 l-41 11 0 74 0 75 -175
0 -175 0 0 -215 0 -215 175 0 175 0 0 25 c0 29 3 30 106 11 560 -103 1385
-108 1869 -11 285 57 479 155 534 268 24 50 28 145 9 211 -30 100 -199 209
-406 260 -164 41 -297 53 -996 96 -715 44 -798 54 -914 111 -142 70 -137 178
11 248 156 73 362 101 795 108 446 7 710 -15 994 -83 l108 -26 0 -79 0 -79
170 0 170 0 0 215 0 215 -170 0 c-167 0 -170 0 -170 -21 0 -19 -4 -21 -32 -16
-278 48 -381 61 -608 77 -131 9 -577 11 -690 3z"/>
<path d="M1010 2600 l0 -110 340 0 340 0 0 -525 0 -525 -340 0 -340 0 0 -110
0 -111 1203 4 c1313 3 1265 1 1511 63 381 95 654 270 761 488 33 67 38 86 42
168 4 77 2 104 -17 158 -100 299 -514 534 -1060 600 -53 6 -519 10 -1262 10
l-1178 0 0 -110z m2483 -138 c330 -70 566 -208 644 -378 33 -72 30 -173 -7
-249 -94 -193 -432 -351 -825 -384 -66 -6 -378 -11 -692 -11 l-573 0 0 526 0
525 673 -3 c652 -4 675 -4 780 -26z"/>
<path d="M4600 2600 l0 -110 340 0 340 0 0 -525 0 -525 -340 0 -340 0 0 -110
0 -110 1705 0 1705 0 0 215 0 215 -175 0 -175 0 0 -105 0 -105 -1015 0 -1015
0 0 210 0 210 850 0 850 0 0 110 0 110 -850 0 -850 0 0 205 0 205 1015 0 1015
0 0 -105 0 -105 175 0 175 0 0 215 0 215 -1705 0 -1705 0 0 -110z"/>
<path d="M11470 2600 l0 -110 345 0 345 0 0 -525 0 -525 -345 0 -345 0 0 -110
0 -110 855 0 855 0 0 110 0 110 -340 0 -340 0 0 525 0 525 340 0 340 0 0 110
0 110 -855 0 -855 0 0 -110z"/>
<path d="M16580 2600 l0 -110 340 0 340 0 0 -525 0 -525 -340 0 -340 0 0 -110
0 -110 855 0 855 0 0 110 0 110 -340 0 -340 0 0 520 c0 286 2 520 5 520 2 0
458 -283 1014 -630 l1009 -630 176 0 176 0 0 635 0 635 340 0 340 0 0 110 0
110 -855 0 -855 0 0 -110 0 -110 340 0 340 0 0 -475 c0 -261 -2 -475 -4 -475
-2 0 -426 263 -942 585 l-938 585 -588 0 -588 0 0 -110z"/>
</g>
</svg>
