<?xml version="1.0" encoding="UTF-8"?>
<svg version="1.1" xmlns="http://www.w3.org/2000/svg" width="709" height="706">
<path d="M0 0 C1.07371857 -0.00045319 2.14743713 -0.00090637 3.25369263 -0.00137329 C20.23831025 0.01960842 36.61854564 1.01660587 53.375 3.86669922 C56.04824783 4.31963721 58.72125425 4.72212855 61.40625 5.09765625 C79.92704365 7.76495514 97.83536161 13.01389897 115.5625 18.875 C116.25538116 19.1021167 116.94826233 19.3292334 117.66213989 19.56323242 C126.89278342 22.60433432 135.60754623 26.15960571 144.375 30.375 C145.8509033 31.0282566 147.32935597 31.6758537 148.8125 32.3125 C163.9193046 39.01442786 178.30640237 47.17027155 192.375 55.8125 C193.07608887 56.23764893 193.77717773 56.66279785 194.49951172 57.10083008 C196.16091138 58.13622239 197.77385816 59.24866485 199.375 60.375 C199.375 61.035 199.375 61.695 199.375 62.375 C200.25800781 62.61992188 201.14101563 62.86484375 202.05078125 63.1171875 C205.60759393 64.46300851 207.70373036 66.01749807 210.5625 68.5 C215.31635199 72.5420802 220.22651169 76.19527732 225.35546875 79.74609375 C226.02191406 80.28363281 226.68835938 80.82117188 227.375 81.375 C227.375 82.035 227.375 82.695 227.375 83.375 C227.90996094 83.5915625 228.44492187 83.808125 228.99609375 84.03125 C232.23038338 85.85817222 234.76172878 88.33383813 237.4375 90.875 C240.31344517 93.58630519 243.07269724 96.17346483 246.375 98.375 C246.375 99.035 246.375 99.695 246.375 100.375 C247.035 100.375 247.695 100.375 248.375 100.375 C248.375 101.035 248.375 101.695 248.375 102.375 C249.365 102.705 250.355 103.035 251.375 103.375 C251.375 104.035 251.375 104.695 251.375 105.375 C252.035 105.375 252.695 105.375 253.375 105.375 C253.375 106.035 253.375 106.695 253.375 107.375 C253.96539063 107.62894531 254.55578125 107.88289063 255.1640625 108.14453125 C257.61769555 109.51006908 258.95344906 110.91591684 260.75 113.0625 C261.34683594 113.77019531 261.94367187 114.47789063 262.55859375 115.20703125 C263.15800781 115.92246094 263.75742187 116.63789062 264.375 117.375 C265.25865234 118.37080078 265.25865234 118.37080078 266.16015625 119.38671875 C266.97806641 120.30904297 266.97806641 120.30904297 267.8125 121.25 C268.30621094 121.80429688 268.79992187 122.35859375 269.30859375 122.9296875 C270.375 124.375 270.375 124.375 270.375 126.375 C271.035 126.375 271.695 126.375 272.375 126.375 C273.94244965 128.19397778 275.3832158 130.01349539 276.8125 131.9375 C277.25134521 132.51959229 277.69019043 133.10168457 278.14233398 133.70141602 C279.55996266 135.58766155 280.96741795 137.48124968 282.375 139.375 C283.30457928 140.61206049 284.234266 141.84904026 285.1640625 143.0859375 C293.61757481 154.39944816 301.1306848 166.11937958 308.25 178.3125 C308.94706055 179.50214355 308.94706055 179.50214355 309.65820312 180.71582031 C310.09841797 181.47862305 310.53863281 182.24142578 310.9921875 183.02734375 C311.38003418 183.69757568 311.76788086 184.36780762 312.16748047 185.05834961 C313.74250471 188.08006514 315.0326963 191.24295803 316.375 194.375 C321.655 194.375 326.935 194.375 332.375 194.375 C332.375 198.02117007 331.34090116 199.4276866 329.4375 202.5 C328.61958984 203.83417969 328.61958984 203.83417969 327.78515625 205.1953125 C326.375 207.375 326.375 207.375 325.375 208.375 C325.79639923 213.50202401 327.11183702 217.53353828 329.25 222.1875 C331.41387875 227.01308433 333.26981008 231.78415335 334.63671875 236.8984375 C335.27368708 239.03514606 336.00351716 241.06852965 336.80078125 243.1484375 C338.36195373 247.25507274 339.65287521 251.40669831 340.875 255.625 C341.17470703 256.63626953 341.17470703 256.63626953 341.48046875 257.66796875 C344.56748454 268.22674249 346.92734058 278.77291405 348.62768555 289.64599609 C348.9351537 291.61001252 349.25172271 293.5725971 349.56835938 295.53515625 C349.98822893 298.1754645 350.39832744 300.8149401 350.79077148 303.45922852 C351.15966574 305.93172955 351.54732701 308.40156941 351.96118164 310.86694336 C353.8933672 323.63973412 353.71454507 336.48831294 353.69067383 349.38061523 C353.68605914 352.07284324 353.6929127 354.76461769 353.71118164 357.45678711 C353.81764367 374.36771162 353.06582528 390.67663596 350.375 407.375 C350.08044103 409.32357212 349.78748851 411.27238773 349.49609375 413.22143555 C345.53319006 439.34878655 338.32214641 466.79044405 326.69140625 490.62890625 C325.52553449 493.060977 324.55437036 495.47124808 323.625 498 C320.32777287 506.46473015 315.68230389 514.39355698 311.375 522.375 C310.77816406 523.48230469 310.18132813 524.58960938 309.56640625 525.73046875 C306.54190825 531.30025857 303.46342174 536.84043891 300.375 542.375 C299.715 542.375 299.055 542.375 298.375 542.375 C298.03275391 543.64537109 298.03275391 543.64537109 297.68359375 544.94140625 C296.14447037 548.97988221 294.0482294 551.90773222 291.4375 555.3125 C290.45004332 556.62464078 289.4630795 557.93715259 288.4765625 559.25 C287.96770508 559.92289063 287.45884766 560.59578125 286.93457031 561.2890625 C285.35372969 563.40344921 283.80909187 565.54011251 282.2734375 567.6875 C281.77706787 568.37851807 281.28069824 569.06953613 280.76928711 569.78149414 C279.81009505 571.11876894 278.85506126 572.45903775 277.90454102 573.80249023 C276.77650912 575.36288199 275.58169525 576.87461173 274.375 578.375 C273.715 578.375 273.055 578.375 272.375 578.375 C272.13910156 578.92929687 271.90320313 579.48359375 271.66015625 580.0546875 C270.0623545 582.93947242 268.05648991 585.08672032 265.8125 587.5 C262.73780814 590.69007509 262.73780814 590.69007509 260.375 594.375 C259.715 594.375 259.055 594.375 258.375 594.375 C258.106875 595.014375 257.83875 595.65375 257.5625 596.3125 C256.375 598.375 256.375 598.375 253.375 599.375 C252.67348848 600.6903341 252.00974075 602.02617592 251.375 603.375 C249.875 605.125 249.875 605.125 248.375 606.375 C247.715 606.375 247.055 606.375 246.375 606.375 C246.106875 607.014375 245.83875 607.65375 245.5625 608.3125 C244.375 610.375 244.375 610.375 241.375 611.375 C241.375 612.035 241.375 612.695 241.375 613.375 C239.65548026 614.91351766 237.87312503 616.38231759 236.0625 617.8125 C232.21032998 620.82735569 232.21032998 620.82735569 228.64453125 624.16015625 C227.375 625.375 227.375 625.375 225.375 625.375 C225.375 626.035 225.375 626.695 225.375 627.375 C223.49609375 628.93359375 223.49609375 628.93359375 220.8125 630.8125 C219.31009766 631.87597656 219.31009766 631.87597656 217.77734375 632.9609375 C217.22933105 633.34733398 216.68131836 633.73373047 216.11669922 634.13183594 C214.29205016 635.4342067 212.48992915 636.76336742 210.69140625 638.1015625 C203.42563434 643.50716961 196.09584922 648.6305941 188.375 653.375 C187.46492187 653.9628125 186.55484375 654.550625 185.6171875 655.15625 C178.48009715 659.70311696 171.12225956 663.70662769 163.625 667.625 C162.1694873 668.38623169 162.1694873 668.38623169 160.68457031 669.1628418 C144.81107767 677.375 144.81107767 677.375 140.375 677.375 C140.045 679.025 139.715 680.675 139.375 682.375 C138.715 682.375 138.055 682.375 137.375 682.375 C137.21 683.055625 137.045 683.73625 136.875 684.4375 C133.06453098 691.8996685 125.0452848 696.5783278 117.375 699.375 C112.4056845 700.62514226 107.43673362 701.56512262 102.375 702.375 C101.32642822 702.55208496 100.27785645 702.72916992 99.19750977 702.91162109 C94.94848382 703.42670388 90.87235224 703.44674558 86.6015625 703.3671875 C84.86979805 703.34961951 83.13802675 703.33271646 81.40625 703.31640625 C78.73514646 703.28600894 76.06441069 703.25114631 73.39355469 703.20361328 C62.87940545 703.02712153 52.73204514 703.44431942 42.3046875 704.859375 C29.68611028 706.54941443 17.22911854 706.8328886 4.50927734 706.76611328 C0.87689698 706.75000841 -2.75437128 706.76608753 -6.38671875 706.78515625 C-33.07856248 706.8089274 -60.87831969 704.23129884 -86.49609375 696.30859375 C-89.74654594 695.33873348 -92.99778282 694.59221951 -96.3125 693.875 C-101.24707079 692.76457312 -105.8748482 691.32979961 -110.59375 689.51953125 C-113.47002525 688.43351495 -116.36960126 687.44371499 -119.28295898 686.46264648 C-134.96638805 681.12014101 -150.36532507 674.69591765 -164.5859375 666.16015625 C-167.48184978 664.45908696 -170.40306029 662.99792903 -173.4375 661.5625 C-181.04573382 657.85618853 -188.00120423 653.09322802 -195.02783203 648.40307617 C-196.65521803 647.31486375 -196.65521803 647.31486375 -198.625 646.375 C-198.625 645.715 -198.625 645.055 -198.625 644.375 C-199.29917969 644.148125 -199.97335938 643.92125 -200.66796875 643.6875 C-204.44438334 642.0113107 -207.59593585 639.78395459 -210.9375 637.375 C-211.58267578 636.92382812 -212.22785156 636.47265625 -212.89257812 636.0078125 C-214.51001255 634.85079063 -216.07293244 633.61833423 -217.625 632.375 C-217.625 631.715 -217.625 631.055 -217.625 630.375 C-218.31980469 630.16230469 -219.01460937 629.94960938 -219.73046875 629.73046875 C-223.42045488 628.00249954 -226.04309743 625.4855372 -228.9375 622.6875 C-230.01581687 621.66159222 -231.09525891 620.63686589 -232.17578125 619.61328125 C-232.73160889 619.08500732 -233.28743652 618.5567334 -233.86010742 618.01245117 C-235.70676239 616.2991416 -237.5992771 614.65178913 -239.5078125 613.0078125 C-243.92391151 609.1690852 -248.06256681 605.08483101 -252.1875 600.9375 C-252.90357422 600.22529297 -253.61964844 599.51308594 -254.35742188 598.77929688 C-258.98551874 594.14277763 -263.38074031 589.36449034 -267.625 584.375 C-268.08318115 583.8385083 -268.5413623 583.3020166 -269.01342773 582.74926758 C-270.20655509 581.34134504 -271.38501629 579.92103162 -272.5625 578.5 C-273.33464844 577.57445312 -274.10679687 576.64890625 -274.90234375 575.6953125 C-276.625 573.375 -276.625 573.375 -276.625 571.375 C-277.285 571.375 -277.945 571.375 -278.625 571.375 C-280.2890625 569.390625 -280.2890625 569.390625 -282.25 566.625 C-282.95382812 565.63371094 -283.65765625 564.64242187 -284.3828125 563.62109375 C-287.86316275 558.58246822 -291.26528362 553.49499332 -294.625 548.375 C-297.595 549.365 -300.565 550.355 -303.625 551.375 C-305.24089184 547.3034615 -305.769196 543.88917619 -305.74780273 539.51660156 C-305.75653214 531.00833856 -307.62730036 525.41079136 -312.25 518.19921875 C-325.80713787 497.02183963 -333.903474 471.41204426 -340.625 447.375 C-340.85670898 446.55531738 -341.08841797 445.73563477 -341.32714844 444.89111328 C-354.01146382 399.3598226 -356.55055162 350.10008479 -349.625 303.375 C-349.48578125 302.36743652 -349.3465625 301.35987305 -349.203125 300.32177734 C-345.93901111 276.88740414 -340.94681897 251.31588087 -330.70703125 229.81640625 C-329.550823 227.20763313 -328.57999892 224.55176376 -327.61547852 221.8671875 C-324.55109905 213.36411543 -320.82017996 205.40275004 -316.65722656 197.38818359 C-315.61760191 195.36057128 -314.61258053 193.31918464 -313.6171875 191.26953125 C-309.41864234 182.64198905 -304.80916503 174.46229745 -299.625 166.375 C-298.93792969 165.26769531 -298.25085938 164.16039062 -297.54296875 163.01953125 C-286.76885676 145.7475668 -274.13559542 128.16877266 -259.37890625 114.08984375 C-257.53477404 112.28678353 -255.86409406 110.396709 -254.1875 108.4375 C-250.24704704 103.8705695 -246.15724048 99.36263318 -241.625 95.375 C-240.965 95.375 -240.305 95.375 -239.625 95.375 C-239.29048828 94.33666016 -239.29048828 94.33666016 -238.94921875 93.27734375 C-237.30690711 89.67782297 -235.00573016 86.90051097 -232.4375 83.9375 C-231.94644775 83.36491455 -231.45539551 82.7923291 -230.94946289 82.20239258 C-227.45211848 78.1842037 -223.91137765 74.56698335 -219.625 71.375 C-218.965 71.375 -218.305 71.375 -217.625 71.375 C-217.625 70.715 -217.625 70.055 -217.625 69.375 C-215.07633055 67.57430963 -212.54002819 65.92636081 -209.875 64.3125 C-209.06877197 63.82080322 -208.26254395 63.32910645 -207.43188477 62.82250977 C-200.84009164 58.89965395 -194.05596371 55.74510765 -187.01831055 52.71826172 C-181.48616803 50.30693836 -176.33259962 47.58630341 -171.1875 44.4375 C-132.86039766 21.14381487 -87.9304673 7.96387178 -43.61132812 2.73925781 C-41.40908906 2.47063938 -39.21020758 2.17414386 -37.01367188 1.86230469 C-24.68366903 0.16790683 -12.43238653 -0.02046671 0 0 Z " fill="#E31F26" transform="translate(355.625,-0.375)"/>
<path d="M0 0 C1.00807205 -0.00570007 2.0161441 -0.01140015 3.05476379 -0.01727295 C5.18876101 -0.02669416 7.32277259 -0.03324545 9.45678711 -0.03710938 C12.65180573 -0.04670907 15.84615058 -0.07771574 19.04101562 -0.109375 C51.8262676 -0.27852535 88.25963203 5.53036629 113.51953125 28.203125 C113.51953125 28.863125 113.51953125 29.523125 113.51953125 30.203125 C114.35484375 30.5125 114.35484375 30.5125 115.20703125 30.828125 C118.48965496 32.77995532 120.22626371 35.14543494 122.51953125 38.203125 C122.51953125 38.863125 122.51953125 39.523125 122.51953125 40.203125 C123.17953125 40.203125 123.83953125 40.203125 124.51953125 40.203125 C143.46550969 64.87584755 146.36228975 99.68837251 142.64428711 129.56469727 C142.04288466 133.79880558 141.31469542 138.00147408 140.51953125 142.203125 C140.38562988 142.93402344 140.25172852 143.66492188 140.11376953 144.41796875 C135.78773622 167.28039934 125.89127881 191.16019967 112.51953125 210.203125 C112.13651855 210.75307129 111.75350586 211.30301758 111.35888672 211.86962891 C106.78009458 218.43095395 102.09197109 224.89169371 97.1171875 231.16015625 C94.92073516 233.96882269 92.8481419 236.86455716 90.78125 239.76953125 C90.36488281 240.24261719 89.94851563 240.71570313 89.51953125 241.203125 C88.85953125 241.203125 88.19953125 241.203125 87.51953125 241.203125 C87.12556152 242.07928467 87.12556152 242.07928467 86.72363281 242.97314453 C85.4591411 245.31496677 84.08223804 246.95539102 82.25390625 248.8828125 C81.61066406 249.56472656 80.96742188 250.24664062 80.3046875 250.94921875 C79.63308594 251.65175781 78.96148437 252.35429687 78.26953125 253.078125 C77.61339844 253.77292969 76.95726562 254.46773437 76.28125 255.18359375 C74.37094921 257.20023335 72.44747599 259.2033628 70.51953125 261.203125 C69.94138672 261.81188477 69.36324219 262.42064453 68.76757812 263.04785156 C67.39097764 264.4721229 65.96007326 265.8435602 64.51953125 267.203125 C63.85953125 267.203125 63.19953125 267.203125 62.51953125 267.203125 C62.51953125 267.863125 62.51953125 268.523125 62.51953125 269.203125 C61.85953125 269.203125 61.19953125 269.203125 60.51953125 269.203125 C60.51953125 269.863125 60.51953125 270.523125 60.51953125 271.203125 C58.875 272.89453125 58.875 272.89453125 56.70703125 274.765625 C55.99933594 275.38566406 55.29164063 276.00570313 54.5625 276.64453125 C52.51953125 278.203125 52.51953125 278.203125 49.51953125 279.203125 C49.51953125 279.863125 49.51953125 280.523125 49.51953125 281.203125 C44.04334077 286.203125 44.04334077 286.203125 41.51953125 286.203125 C41.51953125 286.863125 41.51953125 287.523125 41.51953125 288.203125 C40.05859375 289.7109375 40.05859375 289.7109375 38.14453125 291.328125 C37.51804687 291.86695313 36.8915625 292.40578125 36.24609375 292.9609375 C34.51953125 294.203125 34.51953125 294.203125 32.51953125 294.203125 C32.51953125 294.863125 32.51953125 295.523125 32.51953125 296.203125 C30.9296875 297.65625 30.9296875 297.65625 28.58203125 299.453125 C23.65925267 303.29051143 18.82819371 307.22363333 14.01953125 311.203125 C8.65096466 315.63614893 3.26081021 320.03617357 -2.1875 324.37109375 C-6.65323556 327.93911756 -11.06427529 331.57412726 -15.48046875 335.203125 C-16.15126465 335.75371582 -16.82206055 336.30430664 -17.51318359 336.87158203 C-19.75303702 338.71034196 -21.99188051 340.55032506 -24.23046875 342.390625 C-24.93953369 342.97279785 -25.64859863 343.5549707 -26.37915039 344.15478516 C-27.0674292 344.72116699 -27.75570801 345.28754883 -28.46484375 345.87109375 C-29.13451172 346.42200684 -29.80417969 346.97291992 -30.49414062 347.54052734 C-33.05671045 349.6854512 -35.55689466 351.89824218 -38.04394531 354.13012695 C-39.48046875 355.203125 -39.48046875 355.203125 -41.48046875 355.203125 C-41.48046875 355.863125 -41.48046875 356.523125 -41.48046875 357.203125 C-43.09765186 358.6359968 -44.77670247 359.99937249 -46.48046875 361.328125 C-50.9567231 364.89180105 -55.01089143 368.59835751 -58.921875 372.76953125 C-60.48046875 374.203125 -60.48046875 374.203125 -62.48046875 374.203125 C-62.48046875 374.863125 -62.48046875 375.523125 -62.48046875 376.203125 C-63.14046875 376.203125 -63.80046875 376.203125 -64.48046875 376.203125 C-64.81046875 377.193125 -65.14046875 378.183125 -65.48046875 379.203125 C-66.14046875 379.203125 -66.80046875 379.203125 -67.48046875 379.203125 C-67.48046875 379.863125 -67.48046875 380.523125 -67.48046875 381.203125 C-68.14046875 381.203125 -68.80046875 381.203125 -69.48046875 381.203125 C-69.48046875 381.863125 -69.48046875 382.523125 -69.48046875 383.203125 C-70.14046875 383.203125 -70.80046875 383.203125 -71.48046875 383.203125 C-71.81046875 384.193125 -72.14046875 385.183125 -72.48046875 386.203125 C-73.14046875 386.203125 -73.80046875 386.203125 -74.48046875 386.203125 C-74.72796875 386.75484375 -74.97546875 387.3065625 -75.23046875 387.875 C-76.72281349 390.65449207 -78.51719398 392.9845957 -80.48046875 395.453125 C-81.18171875 396.34515625 -81.88296875 397.2371875 -82.60546875 398.15625 C-83.53359375 399.16945313 -83.53359375 399.16945313 -84.48046875 400.203125 C-85.14046875 400.203125 -85.80046875 400.203125 -86.48046875 400.203125 C-86.72539062 400.90824219 -86.9703125 401.61335938 -87.22265625 402.33984375 C-88.65514403 405.60075537 -90.47568744 408.16446615 -92.60546875 411.015625 C-93.69214844 412.47935547 -93.69214844 412.47935547 -94.80078125 413.97265625 C-95.35507813 414.70871094 -95.909375 415.44476563 -96.48046875 416.203125 C-95.84471924 416.24276367 -95.20896973 416.28240234 -94.55395508 416.32324219 C-81.83538601 417.14328351 -69.22188318 418.25378954 -56.60546875 420.078125 C5.71478689 430.64386989 5.71478689 430.64386989 67.51953125 423.203125 C68.55078125 422.87699219 69.58203125 422.55085938 70.64453125 422.21484375 C84.13264374 417.49724671 97.31507446 408.80919855 107.1953125 398.4453125 C108.51953125 397.203125 108.51953125 397.203125 110.51953125 397.203125 C110.51953125 396.543125 110.51953125 395.883125 110.51953125 395.203125 C112.19921875 393.4765625 112.19921875 393.4765625 114.39453125 391.578125 C115.47347656 390.63066406 115.47347656 390.63066406 116.57421875 389.6640625 C118.51953125 388.203125 118.51953125 388.203125 120.51953125 388.203125 C120.51953125 387.543125 120.51953125 386.883125 120.51953125 386.203125 C123.98106971 383.203125 123.98106971 383.203125 126.51953125 383.203125 C126.57118305 389.65450529 126.60565293 396.10583041 126.62939453 402.55737305 C126.63931503 404.74196362 126.65285565 406.92654142 126.67041016 409.11108398 C126.81141762 427.139303 126.78356256 445.54603948 122.33203125 463.140625 C122.01057129 464.43480347 122.01057129 464.43480347 121.68261719 465.75512695 C117.17278801 482.86791937 107.52643298 496.5570317 92.140625 505.6015625 C76.83410787 513.31324289 60.03232129 513.88319268 43.26953125 513.703125 C42.26639893 513.6979184 41.2632666 513.69271179 40.22973633 513.68734741 C-23.38192073 513.30167302 -23.38192073 513.30167302 -33.48046875 503.203125 C-34.80530407 502.89338341 -36.14160034 502.63261642 -37.48046875 502.390625 C-42.34934343 501.46022222 -47.16066342 500.35535393 -51.98046875 499.203125 C-57.26193595 497.9477833 -62.53630023 496.71068128 -67.87109375 495.69921875 C-69.88554794 495.3162312 -71.89513648 494.9075951 -73.90234375 494.48828125 C-94.22547125 490.38692721 -118.44624799 486.28322702 -138.48046875 493.203125 C-139.48851562 493.5434375 -140.4965625 493.88375 -141.53515625 494.234375 C-148.53754784 496.76824775 -155.15602132 499.90952748 -161.74902344 503.34838867 C-166.22726696 505.66719244 -170.72986492 507.50535093 -175.48046875 509.203125 C-177.09636059 505.1315865 -177.62466475 501.71730119 -177.60327148 497.34472656 C-177.61200089 488.83646356 -179.48276911 483.23891636 -184.10546875 476.02734375 C-197.66260662 454.84996463 -205.75894275 429.24016926 -212.48046875 405.203125 C-212.71217773 404.38344238 -212.94388672 403.56375977 -213.18261719 402.71923828 C-225.86693257 357.1879476 -228.40602037 307.92820979 -221.48046875 261.203125 C-221.34125 260.19556152 -221.20203125 259.18799805 -221.05859375 258.14990234 C-217.79447986 234.71552914 -212.80228772 209.14400587 -202.5625 187.64453125 C-201.40629175 185.03575813 -200.43546767 182.37988876 -199.47094727 179.6953125 C-196.4065678 171.19224043 -192.67564871 163.23087504 -188.51269531 155.21630859 C-187.47307066 153.18869628 -186.46804928 151.14730964 -185.47265625 149.09765625 C-181.27411109 140.47011405 -176.66463378 132.29042245 -171.48046875 124.203125 C-170.79339844 123.09582031 -170.10632813 121.98851562 -169.3984375 120.84765625 C-158.62432551 103.5756918 -145.99106417 85.99689766 -131.234375 71.91796875 C-129.39024279 70.11490853 -127.71956281 68.224834 -126.04296875 66.265625 C-122.10251579 61.6986945 -118.01270923 57.19075818 -113.48046875 53.203125 C-112.82046875 53.203125 -112.16046875 53.203125 -111.48046875 53.203125 C-111.25746094 52.51089844 -111.03445312 51.81867188 -110.8046875 51.10546875 C-109.16237586 47.50594797 -106.86119891 44.72863597 -104.29296875 41.765625 C-103.8019165 41.19303955 -103.31086426 40.6204541 -102.80493164 40.03051758 C-99.30758723 36.0123287 -95.7668464 32.39510835 -91.48046875 29.203125 C-90.82046875 29.203125 -90.16046875 29.203125 -89.48046875 29.203125 C-89.48046875 28.543125 -89.48046875 27.883125 -89.48046875 27.203125 C-88.05029297 26.06152344 -88.05029297 26.06152344 -86.03515625 24.8125 C-84.92394409 24.12305298 -84.92394409 24.12305298 -83.7902832 23.41967773 C-82.98679443 22.93571533 -82.18330566 22.45175293 -81.35546875 21.953125 C-80.54102295 21.45949463 -79.72657715 20.96586426 -78.88745117 20.45727539 C-69.83364449 15.07385909 -60.65300343 11.02188321 -50.48046875 8.203125 C-49.4646875 7.88472656 -48.44890625 7.56632812 -47.40234375 7.23828125 C-37.55204189 4.21768376 -27.66304351 2.63355731 -17.48046875 1.203125 C-15.93770264 0.94293579 -15.93770264 0.94293579 -14.36376953 0.67749023 C-9.55847359 0.09049853 -4.83654252 0.02161217 0 0 Z " fill="#FEFEFE" transform="translate(227.48046875,41.796875)"/>
<path d="M0 0 C0 3.64617007 -1.03409884 5.0526866 -2.9375 8.125 C-3.75541016 9.45917969 -3.75541016 9.45917969 -4.58984375 10.8203125 C-6 13 -6 13 -7 14 C-6.57860077 19.12702401 -5.26316298 23.15853828 -3.125 27.8125 C-0.96112125 32.63808433 0.89481008 37.40915335 2.26171875 42.5234375 C2.89868708 44.66014606 3.62851716 46.69352965 4.42578125 48.7734375 C5.98695373 52.88007274 7.27787521 57.03169831 8.5 61.25 C8.69980469 61.92417969 8.89960937 62.59835937 9.10546875 63.29296875 C12.19248454 73.85174249 14.55234058 84.39791405 16.25268555 95.27099609 C16.5601537 97.23501252 16.87672271 99.1975971 17.19335938 101.16015625 C17.61322893 103.8004645 18.02332744 106.4399401 18.41577148 109.08422852 C18.78466574 111.55672955 19.17232701 114.02656941 19.58618164 116.49194336 C21.5183672 129.26473412 21.33954507 142.11331294 21.31567383 155.00561523 C21.31105914 157.69784324 21.3179127 160.38961769 21.33618164 163.08178711 C21.44264367 179.99271162 20.69082528 196.30163596 18 213 C17.70544103 214.94857212 17.41248851 216.89738773 17.12109375 218.84643555 C13.15819006 244.97378655 5.94714641 272.41544405 -5.68359375 296.25390625 C-6.84946551 298.685977 -7.82062964 301.09624808 -8.75 303.625 C-12.04722713 312.08973015 -16.69269611 320.01855698 -21 328 C-21.59683594 329.10730469 -22.19367188 330.21460938 -22.80859375 331.35546875 C-25.83309175 336.92525857 -28.91157826 342.46543891 -32 348 C-32.66 348 -33.32 348 -34 348 C-34.34224609 349.27037109 -34.34224609 349.27037109 -34.69140625 350.56640625 C-36.23052963 354.60488221 -38.3267706 357.53273222 -40.9375 360.9375 C-41.92495668 362.24964078 -42.9119205 363.56215259 -43.8984375 364.875 C-44.40729492 365.54789063 -44.91615234 366.22078125 -45.44042969 366.9140625 C-47.02127031 369.02844921 -48.56590813 371.16511251 -50.1015625 373.3125 C-50.59793213 374.00351807 -51.09430176 374.69453613 -51.60571289 375.40649414 C-52.56490495 376.74376894 -53.51993874 378.08403775 -54.47045898 379.42749023 C-55.59849088 380.98788199 -56.79330475 382.49961173 -58 384 C-58.66 384 -59.32 384 -60 384 C-60.23589844 384.55429687 -60.47179687 385.10859375 -60.71484375 385.6796875 C-62.3126455 388.56447242 -64.31851009 390.71172032 -66.5625 393.125 C-69.63719186 396.31507509 -69.63719186 396.31507509 -72 400 C-72.66 400 -73.32 400 -74 400 C-74.268125 400.639375 -74.53625 401.27875 -74.8125 401.9375 C-76 404 -76 404 -79 405 C-79.70151152 406.3153341 -80.36525925 407.65117592 -81 409 C-82.5 410.75 -82.5 410.75 -84 412 C-84.66 412 -85.32 412 -86 412 C-86.268125 412.639375 -86.53625 413.27875 -86.8125 413.9375 C-88 416 -88 416 -91 417 C-91 417.66 -91 418.32 -91 419 C-92.71951974 420.53851766 -94.50187497 422.00731759 -96.3125 423.4375 C-100.16467002 426.45235569 -100.16467002 426.45235569 -103.73046875 429.78515625 C-105 431 -105 431 -107 431 C-107 431.66 -107 432.32 -107 433 C-108.87890625 434.55859375 -108.87890625 434.55859375 -111.5625 436.4375 C-112.56410156 437.14648438 -113.56570313 437.85546875 -114.59765625 438.5859375 C-115.14566895 438.97233398 -115.69368164 439.35873047 -116.25830078 439.75683594 C-118.08294984 441.0592067 -119.88507085 442.38836742 -121.68359375 443.7265625 C-128.94936566 449.13216961 -136.27915078 454.2555941 -144 459 C-144.91007813 459.5878125 -145.82015625 460.175625 -146.7578125 460.78125 C-153.89490285 465.32811696 -161.25274044 469.33162769 -168.75 473.25 C-169.7203418 473.75748779 -170.69068359 474.26497559 -171.69042969 474.7878418 C-187.56392233 483 -187.56392233 483 -192 483 C-192.33 484.65 -192.66 486.3 -193 488 C-193.66 488 -194.32 488 -195 488 C-195.165 488.680625 -195.33 489.36125 -195.5 490.0625 C-199.31046902 497.5246685 -207.3297152 502.2033278 -215 505 C-239.27316767 511.10645728 -270.90269988 513.77084997 -293.56152344 501.14282227 C-308.34610669 492.23060023 -316.27315534 478.60886213 -320.6875 462.1875 C-323.50846059 449.61924776 -324.4382135 437.15212159 -324.4375 424.3125 C-324.43923218 423.56108734 -324.44096436 422.80967468 -324.44274902 422.03549194 C-324.42764296 406.95109433 -322.36214704 392.72163413 -319 378 C-318.8242041 377.19062988 -318.6484082 376.38125977 -318.46728516 375.54736328 C-315.59594807 362.36145749 -311.41612769 349.3606421 -306 337 C-305.41088884 335.50225976 -304.82702351 334.00243857 -304.25 332.5 C-297.98439497 316.78852072 -290.31136408 301.30551839 -281.64453125 286.7890625 C-280.04688947 284.07952275 -278.54529283 281.33624184 -277.0625 278.5625 C-270.75448813 266.92846228 -263.41351142 255.94691129 -256 245 C-255.49275391 244.24879883 -254.98550781 243.49759766 -254.46289062 242.72363281 C-247.19858616 231.97759412 -239.76073642 221.39303298 -232 211 C-230.84564453 209.44732422 -230.84564453 209.44732422 -229.66796875 207.86328125 C-226.5593217 203.6984564 -223.43056695 199.55068405 -220.25390625 195.4375 C-219.79508057 194.84340332 -219.33625488 194.24930664 -218.86352539 193.63720703 C-217.97257641 192.48575319 -217.0799074 191.33562763 -216.18530273 190.18701172 C-213.88381703 187.22910569 -213.88381703 187.22910569 -212 184 C-211.34 184 -210.68 184 -210 184 C-209.690625 182.9790625 -209.690625 182.9790625 -209.375 181.9375 C-207.93787275 178.86727361 -206.11142184 176.68630204 -203.85546875 174.1796875 C-200.65908567 170.42477854 -197.83691331 166.37599379 -194.953125 162.37890625 C-194.30859375 161.59386719 -193.6640625 160.80882812 -193 160 C-192.34 160 -191.68 160 -191 160 C-190.34 158.35 -189.68 156.7 -189 155 C-188.34 155 -187.68 155 -187 155 C-186.75378906 154.44441406 -186.50757813 153.88882813 -186.25390625 153.31640625 C-184.75995594 150.55655412 -182.94941592 148.34683141 -180.9375 145.9375 C-180.12667969 144.96167969 -179.31585938 143.98585938 -178.48046875 142.98046875 C-177.66191406 141.99691406 -176.84335937 141.01335937 -176 140 C-174.58243891 138.25072443 -173.1657631 136.50073108 -171.75 134.75 C-167.48292726 129.52302338 -163.05612334 124.44508874 -158.61108398 119.36987305 C-155.69841325 116.02595212 -152.91416551 112.65891998 -150.3125 109.0625 C-149.549375 108.051875 -148.78625 107.04125 -148 106 C-147.34 106 -146.68 106 -146 106 C-145.63068359 105.15115234 -145.63068359 105.15115234 -145.25390625 104.28515625 C-143.78463776 101.60751742 -142.02247565 99.66956388 -139.9375 97.4375 C-136.68892508 93.89831774 -133.57531784 90.30439832 -130.5625 86.5625 C-126.6368686 81.70711379 -122.50548755 77.08643584 -118.26171875 72.5078125 C-116.06919112 70.07671969 -114.03379446 67.56408239 -112 65 C-128.52482685 62.26560595 -144.74445334 61.52811969 -161.47875977 61.60888672 C-165.42955105 61.62496765 -169.37931758 61.60894256 -173.33007812 61.58984375 C-212.15113572 61.5583684 -257.47047046 66.94835562 -289 92 C-290.66632182 93.31293778 -292.33298193 94.62544635 -294 95.9375 C-294.721875 96.52402344 -295.44375 97.11054688 -296.1875 97.71484375 C-298 99 -298 99 -300 99 C-300 99.66 -300 100.32 -300 101 C-300.66 101 -301.32 101 -302 101 C-302 101.66 -302 102.32 -302 103 C-303.375 104.625 -303.375 104.625 -305 106 C-305.66 106 -306.32 106 -307 106 C-307 106.66 -307 107.32 -307 108 C-307.66 108 -308.32 108 -309 108 C-315.06963831 82.10287653 -318.66125387 53.5312999 -304.15771484 29.73925781 C-294.50014108 15.23049452 -277.25398053 7.82287046 -260.75 4.3125 C-245.09600809 1.55716929 -229.88632729 0.69705339 -214.02099609 0.68115234 C-211.86551039 0.67183141 -209.71002822 0.6616596 -207.55455017 0.65071106 C-201.75102326 0.62361551 -195.94752036 0.60831857 -190.14394712 0.59528303 C-184.04243999 0.57953336 -177.94098073 0.55277305 -171.83950806 0.5272522 C-160.29110723 0.48060655 -148.74269708 0.44380702 -137.1942507 0.41057932 C-124.09928871 0.37240221 -111.00437705 0.32291004 -97.90945697 0.27259517 C-77.51306559 0.19453519 -57.11665968 0.12263132 -36.72021484 0.06005859 C-35.71009905 0.0568907 -34.69998325 0.0537228 -33.65925789 0.05045891 C-22.43946347 0.01549478 -11.21985415 -0.00940957 0 0 Z " fill="#FEFDFD" transform="translate(688,194)"/>
<path d="M0 0 C0.29011963 0.58394531 0.58023926 1.16789063 0.87915039 1.76953125 C1.56144955 3.12729319 2.2534589 4.48030558 2.96264648 5.82421875 C5.52887872 10.74890682 7.38871346 15.71245869 9.0625 21 C9.55186738 22.52132248 10.04274385 24.04216038 10.53515625 25.5625 C10.89601318 26.6767334 10.89601318 26.6767334 11.26416016 27.81347656 C11.97066955 29.91284554 12.73445911 31.97878867 13.52734375 34.046875 C15.05521637 38.06033187 16.30538683 42.12665776 17.5 46.25 C17.69980469 46.92417969 17.89960937 47.59835937 18.10546875 48.29296875 C21.19248454 58.85174249 23.55234058 69.39791405 25.25268555 80.27099609 C25.5601537 82.23501252 25.87672271 84.1975971 26.19335938 86.16015625 C26.61322893 88.8004645 27.02332744 91.4399401 27.41577148 94.08422852 C27.78466574 96.55672955 28.17232701 99.02656941 28.58618164 101.49194336 C30.5183672 114.26473412 30.33954507 127.11331294 30.31567383 140.00561523 C30.31105914 142.69784324 30.3179127 145.38961769 30.33618164 148.08178711 C30.44264367 164.99271162 29.69082528 181.30163596 27 198 C26.70544103 199.94857212 26.41248851 201.89738773 26.12109375 203.84643555 C22.15819006 229.97378655 14.94714641 257.41544405 3.31640625 281.25390625 C2.15053449 283.685977 1.17937036 286.09624808 0.25 288.625 C-3.04722713 297.08973015 -7.69269611 305.01855698 -12 313 C-12.89525391 314.66095703 -12.89525391 314.66095703 -13.80859375 316.35546875 C-16.83309175 321.92525857 -19.91157826 327.46543891 -23 333 C-23.66 333 -24.32 333 -25 333 C-25.22816406 333.84691406 -25.45632813 334.69382812 -25.69140625 335.56640625 C-27.23052963 339.60488221 -29.3267706 342.53273222 -31.9375 345.9375 C-32.92495668 347.24964078 -33.9119205 348.56215259 -34.8984375 349.875 C-35.40729492 350.54789063 -35.91615234 351.22078125 -36.44042969 351.9140625 C-38.02127031 354.02844921 -39.56590813 356.16511251 -41.1015625 358.3125 C-41.59793213 359.00351807 -42.09430176 359.69453613 -42.60571289 360.40649414 C-43.56490495 361.74376894 -44.51993874 363.08403775 -45.47045898 364.42749023 C-46.59849088 365.98788199 -47.79330475 367.49961173 -49 369 C-49.66 369 -50.32 369 -51 369 C-51.23589844 369.55429687 -51.47179687 370.10859375 -51.71484375 370.6796875 C-53.3126455 373.56447242 -55.31851009 375.71172032 -57.5625 378.125 C-60.63719186 381.31507509 -60.63719186 381.31507509 -63 385 C-63.66 385 -64.32 385 -65 385 C-65.268125 385.639375 -65.53625 386.27875 -65.8125 386.9375 C-67 389 -67 389 -70 390 C-70.70151152 391.3153341 -71.36525925 392.65117592 -72 394 C-73.5 395.75 -73.5 395.75 -75 397 C-75.66 397 -76.32 397 -77 397 C-77.268125 397.639375 -77.53625 398.27875 -77.8125 398.9375 C-79 401 -79 401 -82 402 C-82 402.66 -82 403.32 -82 404 C-83.71951974 405.53851766 -85.50187497 407.00731759 -87.3125 408.4375 C-91.16467002 411.45235569 -91.16467002 411.45235569 -94.73046875 414.78515625 C-96 416 -96 416 -98 416 C-98 416.66 -98 417.32 -98 418 C-99.87890625 419.55859375 -99.87890625 419.55859375 -102.5625 421.4375 C-103.56410156 422.14648438 -104.56570313 422.85546875 -105.59765625 423.5859375 C-106.14566895 423.97233398 -106.69368164 424.35873047 -107.25830078 424.75683594 C-109.08294984 426.0592067 -110.88507085 427.38836742 -112.68359375 428.7265625 C-119.94936566 434.13216961 -127.27915078 439.2555941 -135 444 C-135.91007813 444.5878125 -136.82015625 445.175625 -137.7578125 445.78125 C-144.89490285 450.32811696 -152.25274044 454.33162769 -159.75 458.25 C-160.7203418 458.75748779 -161.69068359 459.26497559 -162.69042969 459.7878418 C-165.44932632 461.21515815 -168.21887277 462.61654665 -171 464 C-172.2694043 464.63518555 -172.2694043 464.63518555 -173.56445312 465.28320312 C-174.35271484 465.65896484 -175.14097656 466.03472656 -175.953125 466.421875 C-176.64051758 466.7528418 -177.32791016 467.08380859 -178.03613281 467.42480469 C-180.43507989 468.12743016 -181.67913935 467.87270906 -184 467 C-185.96484375 465.328125 -185.96484375 465.328125 -187.9375 463.25 C-188.63617188 462.52296875 -189.33484375 461.7959375 -190.0546875 461.046875 C-190.69664062 460.37140625 -191.33859375 459.6959375 -192 459 C-193.2684375 457.7625 -193.2684375 457.7625 -194.5625 456.5 C-195.366875 455.675 -196.17125 454.85 -197 454 C-197.52078125 453.49855469 -198.0415625 452.99710938 -198.578125 452.48046875 C-207.15595151 443.61285081 -212.66304515 431.01310677 -215 419 C-215.27263672 417.73929688 -215.27263672 417.73929688 -215.55078125 416.453125 C-219.1410148 388.85515579 -213.49077292 359.8052699 -202.93530273 334.28710938 C-202.09139614 332.2234923 -201.31731809 330.15370906 -200.578125 328.05078125 C-197.407587 319.1266493 -193.53574591 310.99254953 -188.9375 302.72558594 C-187.53846558 300.15048821 -186.27427396 297.51357816 -185 294.875 C-182.2990861 289.40711725 -179.16096133 284.2880549 -175.921875 279.125 C-174.26604244 276.43258933 -172.73219892 273.72752149 -171.25 270.9375 C-163.35438125 256.22872636 -154.26811583 242.11838735 -145.578125 227.87109375 C-143.18677113 223.95018813 -140.80165647 220.0255961 -138.421875 216.09765625 C-128.34261684 199.47096292 -118.04138439 183.00827665 -107.36303711 166.7590332 C-105.1098321 163.31731665 -102.89352459 159.88230876 -100.875 156.296875 C-99.04899607 153.08615142 -97.07809831 150.0522069 -95 147 C-91.83283489 142.3026514 -91.83283489 142.3026514 -88.9375 137.4375 C-86.77007696 133.59207203 -84.41364434 129.90241999 -82.03125 126.1875 C-80.20111066 123.31558903 -78.39712372 120.42959943 -76.60107422 117.53637695 C-71.86548276 109.91247076 -67.0127037 102.37151462 -62.10571289 94.85693359 C-57.95862904 88.49795059 -53.87556817 82.10042752 -49.8125 75.6875 C-45.47535233 68.84449757 -41.07368293 62.05693835 -36.54614258 55.33862305 C-33.60097615 50.95025842 -30.78268743 46.4928695 -28 42 C-23.60993763 34.91716114 -19.03846803 27.97385809 -14.38427734 21.0625 C-12.82840307 18.74432965 -11.28266975 16.41958735 -9.73828125 14.09375 C-9.18962402 13.26794434 -8.6409668 12.44213867 -8.07568359 11.59130859 C-6.99854629 9.96966314 -5.92203067 8.34760455 -4.84619141 6.72509766 C-4.35940918 5.99339355 -3.87262695 5.26168945 -3.37109375 4.5078125 C-2.93724365 3.85441895 -2.50339355 3.20102539 -2.05639648 2.52783203 C-1 1 -1 1 0 0 Z " fill="#E31F26" transform="translate(679,209)"/>
<path d="M0 0 C11.66714006 -0.43360902 21.18199658 1.503686 30.28125 9.1875 C30.28125 9.8475 30.28125 10.5075 30.28125 11.1875 C30.94125 11.1875 31.60125 11.1875 32.28125 11.1875 C45.14789579 25.44445133 48.68826638 40.77498607 48.59375 59.5625 C48.59259186 60.27203827 48.59143372 60.98157654 48.59024048 61.71261597 C48.5558185 72.3814747 47.91386164 82.70336975 45.70458984 93.16308594 C45.2721766 95.23088907 44.8907157 97.30320918 44.51953125 99.3828125 C43.459995 105.14864494 42.22311899 110.58971145 40.09326172 116.0559082 C39.24587759 118.28035524 38.48484567 120.52106743 37.73828125 122.78125 C34.28665016 133.13299493 30.30989613 142.81315824 25.18945312 152.44580078 C23.87345317 154.96954907 22.683921 157.55149131 21.46875 160.125 C15.42475354 172.21299292 7.38407581 183.41074167 -0.71875 194.1875 C-1.42515625 195.13753906 -2.1315625 196.08757812 -2.859375 197.06640625 C-5.13370686 200.11607852 -7.42531116 203.152177 -9.71875 206.1875 C-10.62636211 207.40360104 -11.53391236 208.61974824 -12.44140625 209.8359375 C-13.34596281 211.03675324 -14.25090222 212.23728068 -15.15625 213.4375 C-15.58147949 214.01097168 -16.00670898 214.58444336 -16.44482422 215.17529297 C-17.48866886 216.55006126 -18.59835341 217.87436978 -19.71875 219.1875 C-20.37875 219.1875 -21.03875 219.1875 -21.71875 219.1875 C-21.986875 219.765 -22.255 220.3425 -22.53125 220.9375 C-23.74804189 223.24300043 -25.02208879 225.20806192 -26.71875 227.1875 C-27.37875 227.1875 -28.03875 227.1875 -28.71875 227.1875 C-28.986875 227.77015625 -29.255 228.3528125 -29.53125 228.953125 C-30.73355991 231.21536601 -32.05700913 232.99326318 -33.71875 234.9375 C-34.234375 235.55109375 -34.75 236.1646875 -35.28125 236.796875 C-36.71875 238.1875 -36.71875 238.1875 -38.71875 238.1875 C-38.9765625 238.75984375 -39.234375 239.3321875 -39.5 239.921875 C-40.83240942 242.39878995 -42.36931118 244.3216166 -44.21875 246.4375 C-44.8271875 247.14390625 -45.435625 247.8503125 -46.0625 248.578125 C-47.71875 250.1875 -47.71875 250.1875 -49.71875 250.1875 C-50.04875 251.1775 -50.37875 252.1675 -50.71875 253.1875 C-51.37875 253.1875 -52.03875 253.1875 -52.71875 253.1875 C-52.95505127 253.75049805 -53.19135254 254.31349609 -53.43481445 254.89355469 C-55.01682106 257.7200491 -56.94739009 259.62354599 -59.26171875 261.890625 C-60.17115234 262.78910156 -61.08058594 263.68757813 -62.01757812 264.61328125 C-62.98009531 265.55506931 -63.94298819 266.49647355 -64.90625 267.4375 C-70.51082329 272.93764025 -76.03485088 278.41176172 -81.13891602 284.3828125 C-83.65031066 287.25164718 -86.36473327 289.9025723 -89.09375 292.5625 C-92.85901227 296.02419022 -92.85901227 296.02419022 -95.71875 300.1875 C-96.37875 300.1875 -97.03875 300.1875 -97.71875 300.1875 C-97.71875 300.8475 -97.71875 301.5075 -97.71875 302.1875 C-98.37875 302.1875 -99.03875 302.1875 -99.71875 302.1875 C-99.99130615 302.78224121 -100.2638623 303.37698242 -100.54467773 303.98974609 C-101.68675049 306.12759989 -102.84167732 307.60361757 -104.50390625 309.3515625 C-105.03435547 309.91617187 -105.56480469 310.48078125 -106.11132812 311.0625 C-106.93793945 311.92875 -106.93793945 311.92875 -107.78125 312.8125 C-111.68445729 316.68076309 -111.68445729 316.68076309 -114.71875 321.1875 C-115.37875 321.1875 -116.03875 321.1875 -116.71875 321.1875 C-116.95464844 321.73148437 -117.19054687 322.27546875 -117.43359375 322.8359375 C-119.06014371 325.81217785 -121.10133473 328.21619642 -123.28125 330.8125 C-126.30607256 334.29816681 -126.30607256 334.29816681 -128.71875 338.1875 C-129.37875 338.1875 -130.03875 338.1875 -130.71875 338.1875 C-130.94304687 338.868125 -131.16734375 339.54875 -131.3984375 340.25 C-133.07704754 343.98465903 -135.3661594 346.94783151 -137.84375 350.1875 C-146.53482806 361.82817394 -153.52662688 374.0757369 -159.71875 387.1875 C-160.26660156 388.34121094 -160.81445312 389.49492187 -161.37890625 390.68359375 C-165.54852238 399.90793633 -168.30041312 409.38447997 -170.71875 419.1875 C-170.89841309 419.89302002 -171.07807617 420.59854004 -171.26318359 421.32543945 C-172.73288835 427.42464596 -173.33951261 433.50489588 -173.84375 439.75 C-173.93011719 440.75869141 -174.01648438 441.76738281 -174.10546875 442.80664062 C-174.31531659 445.26652365 -174.51963467 447.72672902 -174.71875 450.1875 C-204.05681213 423.4693851 -214.43035818 357.18985312 -219.71875 320.1875 C-219.91791016 318.79990479 -219.91791016 318.79990479 -220.12109375 317.38427734 C-224.15298368 287.33197419 -223.15400522 255.1111346 -218.71875 225.1875 C-218.57953125 224.17993652 -218.4403125 223.17237305 -218.296875 222.13427734 C-215.03276111 198.69990414 -210.04056897 173.12838087 -199.80078125 151.62890625 C-198.644573 149.02013313 -197.67374892 146.36426376 -196.70922852 143.6796875 C-193.64484905 135.17661543 -189.91392996 127.21525004 -185.75097656 119.20068359 C-184.71135191 117.17307128 -183.70633053 115.13168464 -182.7109375 113.08203125 C-178.51239234 104.45448905 -173.90291503 96.27479745 -168.71875 88.1875 C-168.03167969 87.08019531 -167.34460938 85.97289062 -166.63671875 84.83203125 C-155.86260676 67.5600668 -143.22934542 49.98127266 -128.47265625 35.90234375 C-126.62852404 34.09928353 -124.95784406 32.209209 -123.28125 30.25 C-119.33439146 25.65446795 -115.04391517 21.42439649 -110.71875 17.1875 C-110.05875 17.5175 -109.39875 17.8475 -108.71875 18.1875 C-109.16605469 18.97769531 -109.61335938 19.76789063 -110.07421875 20.58203125 C-120.95286848 40.87801955 -124.12434678 63.25858831 -118.7578125 85.828125 C-114.42243978 99.84474355 -106.99414922 112.03515561 -93.8359375 119.21484375 C-92.16928926 119.96595652 -90.44320316 120.58074796 -88.71875 121.1875 C-87.708125 121.579375 -86.6975 121.97125 -85.65625 122.375 C-68.87494675 126.80496372 -50.97934925 120.00467223 -36.4765625 111.90625 C-28.50768594 107.12960013 -28.50768594 107.12960013 -22.71875 100.1875 C-23.564375 99.98125 -24.41 99.775 -25.28125 99.5625 C-35.06668379 95.64832648 -39.32481863 87.18027935 -43.75390625 78.0546875 C-50.2958664 62.34083348 -49.28516981 42.30421206 -43.76953125 26.4609375 C-42.85309207 24.29480854 -41.84961431 22.24838013 -40.71875 20.1875 C-40.1825 19.176875 -39.64625 18.16625 -39.09375 17.125 C-31.28767336 7.47011573 -20.61468995 2.11123242 -8.34375 0.375 C-5.56391244 0.20903955 -2.7819479 0.14026628 0 0 Z " fill="#E31F26" transform="translate(224.71875,77.8125)"/>
<path d="M0 0 C0.66 0.33 1.32 0.66 2 1 C-3 6 -8 11 -13 16 C-13.66 15.67 -14.32 15.34 -15 15 C-10.05 10.05 -5.1 5.1 0 0 Z " fill="#AE1B1D" transform="translate(114,95)"/>
</svg>
