<?xml version="1.0" encoding="UTF-8"?>
<svg id="Layer_1" data-name="Layer 1" xmlns="http://www.w3.org/2000/svg" viewBox="0 0 800 225">
  <defs>
    <style>
      .cls-1 {
        fill: #e02528;
      }

      .cls-2 {
        fill: #231f20;
      }

      .cls-3 {
        fill: #fff;
      }
    </style>
  </defs>
  <g>
    <ellipse class="cls-3" cx="324.02" cy="112.28" rx="74.76" ry="74.68"/>
    <g>
      <path class="cls-1" d="M306.46,65.78c0-7.03-4.59-11.76-8.75-11.76-9.61,0-11.61,4.44-11.61,11.61,0,3.3,1.43,8.6,5.45,9.75-3.73,3.3-7.6,4.87-11.04,4.87-5.74,0-10.18-4.59-10.18-12.9,0-3.26.89-6.69,2.86-9.82-14.72,13.65-23.93,33.16-23.93,54.82,0,13.54,3.6,26.23,9.89,37.18,0-.01,0-.02,0-.03,0-31.4,47.31-45.59,47.31-83.73Z"/>
      <path class="cls-1" d="M325.68,168.52c0-23.37,21.08-48.46,45.16-76.28-4.16-.57-8.17-.86-12.04-.86-12.47,0-23.37,3.01-29.82,10.18-.72-3.01-1.15-5.88-1.15-8.32,0-9.32,5.45-14.34,19.5-14.34h43.57c-12.28-24.49-37.61-41.31-66.87-41.31-14.31,0-27.68,4.02-39.05,11,4-1.45,8.92-2.32,14.89-2.32,19.64,0,27.24,9.18,27.24,23.08,0,31.97-39.14,46.02-51.04,65.38,6.16,0,14.34,2.01,25.81,2.58,10.47,0,13.48-2.29,21.51-9.89.14,2.29.14,4.3.14,6.31,0,14.19-2.87,21.51-17.06,21.51-15.63,0-20.93-5.16-35.56-5.16-2.66,0-6.52,1.95-9.43,3.24,13.36,20.36,36.38,33.8,62.55,33.8,4.18,0,8.28-.35,12.28-1.01-6.37-1.12-10.62-5.45-10.62-17.59Z"/>
      <path class="cls-1" d="M398.79,112.36c0-10.83-2.31-21.12-6.45-30.42-9.95,15.04-37.41,57.87-41.13,66.5-3.15,7.17-4.59,13.33-4.59,18.5,0,5.73,1.86,9.61,7.03,13.91-.03.08-.07.14-.1.22,26.61-11.45,45.24-37.9,45.24-68.7Z"/>
    </g>
  </g>
  <g>
    <path class="cls-2" d="M69.23,187.39c-.97-11.4-2-22.54-3.09-33.4-1.09-10.86-2.37-21.99-3.82-33.4h-3.28v66.79h-19.84V37.61h23.66c9.1,0,15.83,2.03,20.2,6.1,4.37,4.07,6.55,11.01,6.55,20.84v30.94c0,5.82-.67,10.35-2,13.56-1.34,3.22-3.52,5.73-6.55,7.55,1.94,12.13,3.7,24.02,5.28,35.67,1.58,11.65,3.09,23.36,4.55,35.13h-21.66ZM69.59,64.54c0-4.73-2.25-7.1-6.73-7.1h-3.82v45.14h4c4.37,0,6.55-2.3,6.55-6.92v-31.12Z"/>
    <path class="cls-2" d="M132.01,37.61h19.66v125.94c0,16.99-8.07,25.48-24.21,25.48s-24.39-8.49-24.39-25.48V37.61h19.84v125.94c0,3.76,1.52,5.64,4.55,5.64s4.55-1.88,4.55-5.64V37.61Z"/>
    <path class="cls-2" d="M168.05,187.39V37.61h19.84v129.95h22.2v19.84h-42.04Z"/>
    <path class="cls-2" d="M222.47,187.39V37.61h41.13v19.84h-21.29v43.68h13.47v19.84h-13.47v46.59h22.2v19.84h-42.04Z"/>
    <path class="cls-2" d="M424.84,187.39V37.61h24.2c8.13,0,14.22,2.28,18.29,6.83,4.06,4.55,6.1,10.83,6.1,18.84v98.64c0,16.99-8.13,25.48-24.39,25.48h-24.2ZM453.77,63.09c0-3.76-1.58-5.64-4.73-5.64h-4.37v110.11h4.37c3.15,0,4.73-1.88,4.73-5.64V63.09Z"/>
    <path class="cls-2" d="M489.26,187.39V37.61h41.13v19.84h-21.29v43.68h13.47v19.84h-13.47v46.59h22.2v19.84h-42.04Z"/>
    <path class="cls-2" d="M571.89,142.98c0-1.94-.18-3.7-.55-5.28-.36-1.58-1.09-3.3-2.18-5.19-1.09-1.88-2.58-4.06-4.46-6.55-1.88-2.49-4.34-5.67-7.37-9.56-2.31-3.03-4.34-5.88-6.1-8.55-1.76-2.67-3.22-5.34-4.37-8.01-1.15-2.67-2.03-5.37-2.64-8.1-.61-2.73-.91-5.67-.91-8.83v-22.39c0-16.38,8.07-24.57,24.21-24.57,8.49,0,14.53,2,18.11,6.01,3.58,4,5.37,10.19,5.37,18.56v27.48h-18.2v-27.48c0-3.15-1.58-4.73-4.73-4.73s-4.73,1.58-4.73,4.73v22.2c0,1.94.24,3.67.73,5.19.48,1.52,1.27,3.18,2.37,5,1.09,1.82,2.55,3.91,4.37,6.28,1.82,2.37,4.12,5.37,6.92,9.01,2.67,3.52,4.88,6.71,6.64,9.55,1.76,2.85,3.18,5.58,4.28,8.19,1.09,2.61,1.85,5.25,2.28,7.92.42,2.67.64,5.64.64,8.92v21.48c0,8.01-1.88,14.14-5.64,18.38-3.76,4.25-9.89,6.37-18.38,6.37s-14.5-2.12-18.38-6.37c-3.88-4.25-5.82-10.37-5.82-18.38v-31.85h18.93v31.85c0,3.28,1.58,4.91,4.73,4.91s4.91-1.64,4.91-4.91v-21.29Z"/>
    <path class="cls-2" d="M607.01,187.39V37.61h19.84v149.79h-19.84Z"/>
    <path class="cls-2" d="M690.19,188.3l-6.37-6.01c-1.94,2.55-4.52,4.31-7.74,5.28-3.22.97-6.52,1.46-9.92,1.46s-6.31-.43-9.1-1.27c-2.79-.85-5.25-2.28-7.37-4.28-2.12-2-3.76-4.64-4.91-7.92-1.15-3.28-1.73-7.28-1.73-12.01V61.63c0-8.37,2-14.74,6.01-19.11,4-4.37,10.19-6.55,18.56-6.55s14.38,2.18,18.02,6.55c3.64,4.37,5.46,10.74,5.46,19.11v26.39h-17.84v-26.57c0-3.76-1.88-5.64-5.64-5.64-3.16,0-4.73,1.88-4.73,5.64v102.1c0,3.76,1.52,5.64,4.55,5.64,3.76,0,5.64-1.88,5.64-5.64v-29.3h-6.37v-18.93h25.48v72.98h-2Z"/>
    <path class="cls-2" d="M741.88,187.39c-3.03-14.44-5.55-26.57-7.55-36.4-2-9.83-3.7-18.14-5.1-24.93-1.4-6.79-2.52-12.5-3.37-17.11-.85-4.61-1.64-9.04-2.37-13.29.24,8.86.39,17.65.46,26.39.06,8.74.09,17.65.09,26.75v38.58h-16.56V37.61h22.75c2.55,15.77,4.64,28.82,6.28,39.13,1.64,10.31,2.97,18.87,4,25.66,1.03,6.8,1.85,12.35,2.46,16.65.61,4.31,1.21,8.4,1.82,12.29-.24-8.01-.4-15.89-.46-23.66-.06-7.76-.09-15.53-.09-23.3v-46.77h16.56v149.79h-18.93Z"/>
  </g>
</svg>